<svg width="110" height="43" viewBox="0 0 110 43" fill="none" xmlns="http://www.w3.org/2000/svg">
<path d="M65.4315 11.4285C62.6883 8.68528 59.4316 6.50918 55.8475 5.02458C52.2633 3.53998 48.4219 2.77588 44.5424 2.77588C40.6629 2.77588 36.8215 3.53998 33.2373 5.02458C29.6532 6.50918 26.3965 8.68528 23.6533 11.4285L44.5424 32.3175L65.4315 11.4285Z" fill="#FFD200"/>
<path d="M44.5686 32.3476C47.3118 35.0908 50.5684 37.2668 54.1526 38.7514C57.7367 40.236 61.5782 41.0001 65.4577 41.0001C69.337 41.0001 73.179 40.236 76.763 38.7514C80.347 37.2668 83.604 35.0908 86.347 32.3476L65.4577 11.4585L44.5686 32.3476Z" fill="#06E07F"/>
<path d="M44.517 32.343C41.7738 35.0862 38.5171 37.2622 34.933 38.7468C31.3488 40.2314 27.5074 40.9955 23.6279 40.9955C19.7484 40.9955 15.907 40.2314 12.3228 38.7468C8.73867 37.2622 5.48197 35.0862 2.73877 32.343L23.6279 11.4539L44.517 32.343Z" fill="#E3073C"/>
<path d="M65.4832 11.433C68.2261 8.68982 71.4831 6.51382 75.0671 5.02922C78.6511 3.54462 82.4931 2.78052 86.3721 2.78052C90.2521 2.78052 94.0931 3.54462 97.6771 5.02922C101.261 6.51382 104.518 8.68982 107.261 11.433L86.3721 32.3221L65.4832 11.433Z" fill="#1F84EF"/>
</svg>
