<svg width="81" height="70" viewBox="0 0 81 70" fill="none" xmlns="http://www.w3.org/2000/svg">
<path d="M17.9305 59.824H21.4637C21.4256 60.1798 21.3493 60.8788 21.0951 61.3745C20.2944 63.0902 18.4516 64.0434 14.9566 64.0434C12.1605 64.0434 10.3431 63.3444 9.36446 62.1625C8.69086 61.3745 8.34766 60.2815 8.34766 58.8835C8.34766 57.6126 8.66545 56.5577 9.30085 55.7824C10.3176 54.5115 12.1478 53.749 15.0201 53.749C18.9345 53.749 20.5613 55.147 21.1587 56.634C21.362 57.155 21.4256 57.7397 21.4383 58.0574H17.9051C17.8923 57.8286 17.8034 57.5363 17.6509 57.3202C17.2823 56.7865 16.4689 56.3925 14.982 56.3925C13.6348 56.3925 12.6562 56.7356 12.2113 57.4346C11.9826 57.7778 11.8936 58.2862 11.8936 58.9216C11.8936 59.6079 12.008 60.0782 12.2495 60.4213C12.7452 61.1584 13.8509 61.438 14.9947 61.438C16.3291 61.438 17.2822 61.1711 17.7017 60.5611C17.8543 60.345 17.9178 60.0909 17.9305 59.824Z" fill="#394149"/>
<path d="M32.3771 61.2346V63.8908H22.8579V53.9141H26.3021V61.2346H32.3771Z" fill="#394149"/>
<path d="M44.241 63.8908V61.4125H37.0857V60.1162H43.9487V57.6887H37.0857V56.4051H44.1521V53.9141H33.7305V63.8908H44.241Z" fill="#394149"/>
<path fill-rule="evenodd" clip-rule="evenodd" d="M54.714 62.048H49.3253L48.3975 63.8908H44.8008L50.126 53.9141H54.231L59.264 63.8908H55.591L54.714 62.048ZM50.4437 59.8112H53.634L52.4391 57.3964L52.0832 56.494L51.702 57.4091L50.4437 59.8112Z" fill="#394149"/>
<path fill-rule="evenodd" clip-rule="evenodd" d="M72.0358 56.9516C72.0358 56.0492 71.8198 55.401 71.3618 54.9308C70.7648 54.2953 69.7348 53.9141 68.1598 53.9141H60.2158V63.8908H63.6098V60.3704H66.6978L69.1758 63.8908H72.9638L69.9518 59.8239C70.6248 59.7222 71.1718 59.3155 71.5268 58.8325C71.8448 58.3877 72.0358 57.7268 72.0358 56.9516ZM68.7308 57.2693C68.7308 57.4345 68.7058 57.6379 68.6168 57.7904C68.4898 58.0446 68.1598 58.1463 67.6128 58.1463H63.6218V56.3288H67.5488C68.0828 56.3288 68.4388 56.4178 68.6168 56.7482C68.7058 56.8753 68.7308 57.0787 68.7308 57.2693Z" fill="#394149"/>
<path d="M53.296 8.4758C53.296 8.6411 53.271 8.8444 53.182 8.9969C53.055 9.2511 52.724 9.3528 52.1777 9.3528H48.187V7.5354H52.1141C52.648 7.5354 53.004 7.6243 53.182 7.9548C53.271 8.0819 53.296 8.2852 53.296 8.4758Z" fill="#394149"/>
<path d="M63.2319 11.0178H66.4219L65.2269 8.60298L64.8709 7.70068L64.4899 8.61578L63.2319 11.0178Z" fill="#394149"/>
<path fill-rule="evenodd" clip-rule="evenodd" d="M2.5415 8.45247C2.953 4.40067 6.3749 1.23877 10.5353 1.23877H70.465C74.903 1.23877 78.5 4.83627 78.5 9.27407V59.5598C78.5 63.9976 74.903 67.5951 70.465 67.5951H10.5353C6.0975 67.5951 2.5 63.9976 2.5 59.5598V9.27407C2.5 8.99667 2.5141 8.72267 2.5415 8.45247ZM4.174 23.7133L31.181 32.8472C31.9167 32.1007 32.9179 31.4518 34.1223 30.9462C34.3992 30.8299 34.685 30.7221 34.9784 30.6229L23.7187 19.1985H32.5325L37.4804 30.0158C38.1338 29.9133 38.8055 29.848 39.4864 29.8219C39.7129 29.8132 39.9394 29.8088 40.1655 29.8088V19.1985H47.7983L42.8504 30.016C43.6126 30.1357 44.3526 30.3064 45.0552 30.5264C45.9595 30.8096 46.7826 31.1682 47.5007 31.5889L68.652 19.1985H76.826V23.4869L45.8647 33.9582C45.2139 33.2978 44.2434 32.7654 43.0759 32.4281C41.9085 32.0909 40.5966 31.964 39.306 32.0635C38.0155 32.163 36.8044 32.4845 35.8257 32.9872C34.8471 33.49 34.1449 34.1515 33.808 34.888C33.4711 35.6245 33.5146 36.403 33.933 37.1251C34.3514 37.8471 35.126 38.4804 36.1586 38.9446C37.1913 39.4087 38.4358 39.683 39.7347 39.7329C40.4564 39.7606 41.177 39.7184 41.8683 39.6098C42.4208 39.5231 42.9551 39.394 43.4558 39.2246L53.717 49.6354H46.4547L42.8499 41.7558C41.0892 42.0322 39.2373 42.0316 37.4804 41.7559L33.8762 49.6354H26.6141L34.9783 41.1489C34.1952 40.884 33.4724 40.5596 32.8296 40.1831L16.6939 49.6354H4.174V48.0585L31.1809 38.9245C30.5595 38.294 30.1337 37.6004 29.9295 36.8758C29.6881 36.0193 29.7636 35.1456 30.1445 34.313L4.174 30.2366V23.7133ZM76.826 48.2848L40.1655 35.8858L76.826 41.6402V48.2848ZM76.826 51.3094H4.174V59.5598C4.174 63.073 7.022 65.921 10.5353 65.921H70.465C73.978 65.921 76.826 63.073 76.826 59.5598V51.3094ZM22.0029 11.2467V5.12087H18.5968V10.9416C18.5968 11.9838 17.6309 12.6828 16.0042 12.6828C14.3011 12.6828 13.3733 12.0092 13.3733 10.9289V5.12087H9.9291V10.9289C9.9291 13.9537 12.4075 15.2374 15.8644 15.2374C19.5628 15.2374 22.0029 13.941 22.0029 11.2467ZM33.4738 15.0976V12.4413H27.3988V5.12087H23.9546V15.0976H33.4738ZM43.7096 5.12087V7.62457H39.4902V15.0976H36.0078V7.62457H31.8011V5.12087H43.7096ZM56.6 8.15837C56.6 7.25607 56.384 6.60787 55.927 6.13757C55.33 5.50217 54.3 5.12087 52.724 5.12087H44.7809V15.0976H48.1742V11.5771H51.2626L53.741 15.0976H57.528L54.516 11.0306C55.19 10.9289 55.736 10.5222 56.092 10.0393C56.41 9.59457 56.6 8.93367 56.6 8.15837ZM67.502 13.2547H62.113L61.186 15.0976H57.589L62.914 5.12087H67.019L72.052 15.0976H68.379L67.502 13.2547Z" fill="#394149"/>
</svg>
