<svg width="133" height="40" viewBox="0 0 133 40" fill="none" xmlns="http://www.w3.org/2000/svg">
<path d="M23.73 11.39H25.73V25.31H31.73V27.31H23.73V11.39ZM37.96 11.39C39.1467 11.39 40.3067 11.7419 41.2934 12.4012C42.2801 13.0605 43.0492 13.9975 43.5033 15.0939C43.9574 16.1903 44.0762 17.3967 43.8447 18.5605C43.6132 19.7244 43.0418 20.7935 42.2026 21.6326C41.3635 22.4718 40.2944 23.0432 39.1305 23.2747C37.9667 23.5062 36.7603 23.3874 35.6639 22.9333C34.5675 22.4791 33.6305 21.7101 32.9712 20.7234C32.3119 19.7367 31.96 18.5767 31.96 17.39C31.96 16.6021 32.1152 15.8218 32.4167 15.0939C32.7182 14.3659 33.1602 13.7045 33.7174 13.1474C34.2745 12.5902 34.9359 12.1482 35.6639 11.8467C36.3918 11.5452 37.1721 11.39 37.96 11.39ZM37.96 21.39C38.7511 21.39 39.5245 21.1554 40.1823 20.7159C40.8401 20.2763 41.3528 19.6516 41.6555 18.9207C41.9583 18.1898 42.0375 17.3856 41.8831 16.6096C41.7288 15.8337 41.3478 15.121 40.7884 14.5616C40.229 14.0022 39.5163 13.6212 38.7404 13.4669C37.9644 13.3125 37.1602 13.3917 36.4293 13.6945C35.6984 13.9972 35.0736 14.5099 34.6341 15.1677C34.1946 15.8255 33.96 16.5989 33.96 17.39C33.9653 18.4474 34.389 19.4597 35.1386 20.2055C35.8882 20.9513 36.9026 21.37 37.96 21.37V21.39ZM33.96 25.33H41.96V27.33H33.96V25.33ZM59.56 27.33H57.56V25.9C56.2702 26.8028 54.7344 27.288 53.16 27.29C51.8175 27.299 50.4943 26.97 49.3124 26.3333C48.1304 25.6965 47.1277 24.7726 46.3967 23.6466C45.6656 22.5206 45.2296 21.2287 45.129 19.8899C45.0283 18.5512 45.2662 17.2086 45.8207 15.986C46.3752 14.7633 47.2285 13.6998 48.3019 12.8936C49.3754 12.0873 50.6345 11.5641 51.9632 11.3723C53.292 11.1804 54.6477 11.3261 55.9053 11.7958C57.163 12.2655 58.2823 13.0441 59.16 14.06L57.69 15.37C57.0224 14.6236 56.1787 14.0562 55.2356 13.7195C54.2926 13.3827 53.2803 13.2873 52.291 13.442C51.3016 13.5967 50.3668 13.9966 49.5715 14.6051C48.7763 15.2137 48.146 16.0115 47.7382 16.9261C47.3303 17.8406 47.1578 18.8426 47.2364 19.8409C47.315 20.8392 47.6421 21.8019 48.1881 22.6413C48.7341 23.4807 49.4814 24.1702 50.3621 24.6468C51.2427 25.1234 52.2287 25.372 53.23 25.37C54.061 25.3717 54.8826 25.1939 55.6386 24.8487C56.3945 24.5035 57.067 23.9991 57.61 23.37H52.21V21.37H59.58L59.56 27.33ZM66.92 11.43C68.1067 11.43 69.2667 11.7819 70.2534 12.4412C71.2401 13.1005 72.0092 14.0375 72.4633 15.1339C72.9174 16.2303 73.0362 17.4367 72.8047 18.6005C72.5732 19.7644 72.0018 20.8335 71.1626 21.6726C70.3235 22.5118 69.2544 23.0832 68.0905 23.3147C66.9267 23.5462 65.7203 23.4274 64.6239 22.9733C63.5275 22.5191 62.5905 21.7501 61.9312 20.7634C61.2719 19.7767 60.92 18.6167 60.92 17.43C60.9147 16.637 61.0667 15.8509 61.3671 15.117C61.6675 14.3831 62.1104 13.716 62.6702 13.1544C63.23 12.5927 63.8956 12.1476 64.6285 11.8447C65.3614 11.5419 66.147 11.3873 66.94 11.39L66.92 11.43ZM66.92 21.43C67.7111 21.43 68.4845 21.1954 69.1423 20.7559C69.8001 20.3163 70.3128 19.6916 70.6155 18.9607C70.9183 18.2298 70.9975 17.4256 70.8431 16.6496C70.6888 15.8737 70.3078 15.161 69.7484 14.6016C69.189 14.0422 68.4763 13.6612 67.7004 13.5069C66.9244 13.3525 66.1202 13.4317 65.3893 13.7345C64.6584 14.0372 64.0336 14.5499 63.5941 15.2077C63.1546 15.8655 62.92 16.6389 62.92 17.43C62.9358 18.4839 63.3669 19.489 64.1197 20.2268C64.8724 20.9645 65.886 21.3754 66.94 21.37L66.92 21.43ZM62.92 25.37H70.92V27.37H62.92V25.37ZM75.05 11.39H77.05V27.29H75.05V11.39ZM79.82 11.39H81.82C81.923 11.3791 82.0269 11.3791 82.13 11.39C82.9676 11.2991 83.815 11.3857 84.6169 11.644C85.4188 11.9024 86.1574 12.3267 86.7844 12.8894C87.4115 13.4521 87.913 14.1406 88.2563 14.91C88.5997 15.6794 88.7771 16.5125 88.7771 17.355C88.7771 18.1975 88.5997 19.0306 88.2563 19.8C87.913 20.5694 87.4115 21.2579 86.7844 21.8206C86.1574 22.3833 85.4188 22.8076 84.6169 23.066C83.815 23.3243 82.9676 23.4109 82.13 23.32H81.82V27.32H79.82V11.39ZM81.82 13.39V21.3H82.13C82.6949 21.3752 83.2693 21.3289 83.8149 21.164C84.3604 20.9992 84.8644 20.7197 85.2931 20.3443C85.7219 19.9689 86.0654 19.5062 86.3008 18.9872C86.5362 18.4682 86.658 17.9049 86.658 17.335C86.658 16.7651 86.5362 16.2018 86.3008 15.6828C86.0654 15.1638 85.7219 14.7011 85.2931 14.3257C84.8644 13.9502 84.3604 13.6708 83.8149 13.5059C83.2693 13.3411 82.6949 13.2948 82.13 13.37C82.0211 13.3813 81.9137 13.4048 81.81 13.44L81.82 13.39ZM96.23 12.54L94.75 13.71C94.4947 13.4432 94.1685 13.2548 93.8098 13.167C93.4511 13.0792 93.0748 13.0956 92.7251 13.2143C92.3753 13.3329 92.0668 13.5489 91.8356 13.8369C91.6044 14.1249 91.4602 14.4729 91.42 14.84V15C91.42 15.88 92.03 16.47 93.22 16.55C97.8 16.83 99.9 18.98 99.9 21.82V22C99.7817 23.124 99.3431 24.1904 98.6363 25.0724C97.9295 25.9544 96.9842 26.6147 95.913 26.975C94.8417 27.3352 93.6895 27.3802 92.5934 27.1045C91.4973 26.8289 90.5034 26.2442 89.73 25.42L91.26 24.24C91.6161 24.6217 92.051 24.9213 92.5345 25.1182C93.018 25.315 93.5385 25.4044 94.06 25.38C95.0232 25.4308 95.9687 25.1075 96.6991 24.4776C97.4296 23.8478 97.8885 22.9601 97.98 22V21.86C97.98 19.19 95.36 18.7 93.09 18.48C90.99 18.28 89.48 16.97 89.48 15.08V15C89.554 14.016 90.0031 13.098 90.7344 12.4356C91.4657 11.7731 92.4235 11.4167 93.41 11.44C93.9328 11.4246 94.4529 11.5189 94.937 11.717C95.421 11.9151 95.8581 12.2125 96.22 12.59L96.23 12.54ZM107.73 25.26C110.22 25.26 112.19 22.57 112.19 19.26V11.26H114.19V19.26C114.19 23.66 111.31 27.21 107.77 27.21C104.23 27.21 101.35 23.66 101.35 19.26V11.26H103.35V19.26C103.27 22.62 105.24 25.31 107.72 25.31L107.73 25.26ZM129.54 27.26H127.54V17.36L122.93 23.36L118.32 17.36V27.29H116.32V11.39L122.92 20.08L129.52 11.39L129.54 27.26Z" fill="#394149"/>
<path d="M14.13 9.00006C14.13 7.55728 13.5569 6.17359 12.5367 5.1534C11.5165 4.1332 10.1328 3.56006 8.69 3.56006C7.24722 3.56006 5.86354 4.1332 4.84334 5.1534C3.82314 6.17359 3.25 7.55728 3.25 9.00006V25.4501L7.73 28.6601V36.4801H9.65V28.6601L14.13 25.4501V9.00006ZM12.21 18.2001L9.65 20.7601V18.3601L12.21 15.8001V18.2001ZM5.21 15.8001L7.77 18.3601V20.7601L5.21 18.2001V15.8001ZM12.21 13.0801L8.69 16.6001L5.17 13.0001V10.6001L8.69 14.1201L12.21 10.6001V13.0801ZM8.69 5.48006C9.46415 5.48348 10.2158 5.74059 10.8299 6.21199C11.444 6.68339 11.8866 7.34309 12.09 8.09006L8.69 11.4801L5.29 8.09006C5.48594 7.33566 5.92537 6.66701 6.54013 6.18787C7.15489 5.70872 7.91059 5.44585 8.69 5.44005V5.48006ZM5.17 24.4801V20.8801L7.73 23.4401V26.3001L5.17 24.4801ZM9.65 26.3101V23.4401L12.21 20.8801V24.4701L9.65 26.3101Z" fill="#394149"/>
</svg>
