<svg width="104" height="52" viewBox="0 0 104 52" fill="none" xmlns="http://www.w3.org/2000/svg">
<path d="M8.53122 11.1781C7.89592 9.5635 8.17172 7.707 8.75692 6.1456C9.37262 4.5026 10.4447 2.8641 12.0471 2C12.1266 3.7314 11.5977 5.442 11.0198 6.9845C10.5001 8.3719 9.86242 9.85 8.80942 10.9974C8.64762 11.8668 8.52362 12.7338 8.43642 13.5968C8.78542 12.6851 9.35132 11.8541 10.0574 11.1859C10.9665 10.3255 12.3188 9.6616 13.5882 10.0542C13.2164 11.4574 12.3689 12.8025 11.3652 13.7461C10.5752 14.4888 9.53232 15.4405 8.30392 15.4779C8.25332 16.7479 8.28192 18.0063 8.38642 19.2476C8.55972 18.3392 8.93102 17.4838 9.46752 16.8468C10.2045 15.9715 11.2973 14.9021 12.6929 15.081C12.6167 16.5012 12.0502 17.9563 11.2613 19.0497C10.6344 19.9186 9.80682 21.026 8.63212 21.3121C8.82022 22.5318 9.08222 23.7313 9.41462 24.905C9.41782 24.0063 9.61632 23.1242 10.0101 22.4167C10.5651 21.419 11.4295 20.1748 12.8267 20.0775C13.0315 21.4708 12.754 22.9939 12.1942 24.2053C11.7468 25.1736 11.1503 26.4084 10.063 26.9193C10.5196 28.1821 11.0599 29.4096 11.6794 30.5944C11.4619 29.5732 11.4706 28.4971 11.728 27.5289C12.0827 26.1941 12.9632 24.792 14.3768 24.3851C14.8765 25.8587 14.8076 27.5033 14.5173 29.0011C14.2784 30.2343 13.809 31.6827 12.7568 32.4838C13.4447 33.5939 14.2057 34.6593 15.0356 35.673C14.5897 34.6788 14.3681 33.5915 14.487 32.596C14.6602 31.1458 15.0677 29.5944 16.549 28.8212C17.3894 30.2712 17.5841 31.8979 17.6555 33.5046C17.7132 34.8035 17.5261 36.4056 16.624 37.4623C17.6163 38.494 18.687 39.4596 19.8306 40.35C19.0923 39.4029 18.5753 38.2915 18.4658 37.1924C18.3112 35.6395 18.3868 33.93 19.7649 32.7904C20.9435 34.0214 21.6468 35.8343 21.9915 37.4089C22.2963 38.8011 22.6145 40.4489 21.8888 41.819C23.3442 42.769 24.8979 43.606 26.5406 44.3148C25.3847 43.4911 24.4385 42.361 23.9877 41.1942C23.397 39.6647 23.0316 37.8422 24.1823 36.3104C25.724 37.2979 26.8571 38.9827 27.7498 40.5193C28.5158 41.8378 29.3087 43.6576 28.9153 45.2279C29.8248 45.5365 30.7578 45.8075 31.7131 46.0387L31.6563 46.2732C30.6974 46.0411 29.7608 45.7692 28.8476 45.4597C28.2078 47.3504 26.1119 47.975 24.4169 48.2508C22.0018 48.6437 19.1261 47.8824 17.0643 46.3488C18.1525 44.8109 20.3728 44.6549 22.047 44.5372L22.0688 44.5357C23.9029 44.4068 25.8866 44.579 27.731 45.0582C25.6003 44.2471 23.6066 43.2273 21.7682 42.0284L21.7411 42.0712C20.7337 43.7047 18.7111 43.7684 17.1235 43.6651C14.9692 43.5249 12.482 42.215 11.0425 40.4043C12.3965 39.2163 14.3964 39.5488 15.946 39.8064L15.9535 39.8076C17.683 40.0951 19.5729 40.7223 21.1593 41.688C21.0082 41.569 20.8603 41.4431 20.7166 41.3111C19.1742 40.2114 17.7514 38.9813 16.4603 37.6401C16.4453 37.6551 16.4301 37.67 16.4148 37.6848C15.1594 38.9477 13.331 38.617 11.9041 38.206C9.99462 37.656 8.01432 35.9967 7.06532 34.0918C8.53592 33.2678 10.2941 33.9468 11.6617 34.4839C13.1627 35.0734 14.7508 36.0164 15.9719 37.2185C15.846 37.0597 15.7259 36.8938 15.6124 36.7221C14.4774 35.4411 13.4564 34.0694 12.5588 32.6223L12.5138 32.6505C11.0936 33.567 9.48452 32.9033 8.20922 32.2506C6.48012 31.3657 5.09062 29.4209 4.49022 27.5083C6.02412 27.017 7.53962 27.9813 8.71772 28.745C10.0062 29.5802 11.3114 30.7714 12.2073 32.1375C12.1415 32.0029 12.0802 31.8653 12.0237 31.7251C11.1629 30.2233 10.4316 28.6467 9.83962 27.0112L9.80912 27.0216L9.80662 27.0225C8.51532 27.5134 7.07732 26.7502 6.13982 25.9132C4.83682 24.75 3.91842 22.9617 3.70312 21.2146C5.04942 21.0402 6.31782 22.0818 7.18502 22.9702C8.18322 23.9927 9.07912 25.2012 9.62992 26.5435C9.58972 26.3977 9.55522 26.2496 9.52622 26.1C9.02502 24.5631 8.64532 22.9781 8.39502 21.3577L8.37552 21.3601L8.36892 21.3612C7.00372 21.5891 5.74152 20.5512 4.98742 19.5439C3.92942 18.1304 3.38402 16.1741 3.52072 14.401C4.88062 14.4961 5.91612 15.7898 6.58762 16.8363C7.36482 18.0478 8.00932 19.4189 8.29162 20.8533C8.28302 20.7392 8.27792 20.6244 8.27612 20.5093C8.06882 18.8601 7.99492 17.1771 8.06252 15.4733L8.05862 15.4731C6.67062 15.4231 5.64482 14.1344 5.11522 12.9913C4.35742 11.3555 4.23542 9.2878 4.74122 7.5452C6.06412 7.9165 6.80162 9.434 7.23692 10.6021C7.73882 11.9489 8.08912 13.4178 8.09192 14.8782C8.16412 13.653 8.30952 12.4181 8.53122 11.1781Z" fill="#394149"/>
<path d="M35.8683 8.15552V14.0053C35.8683 16.5782 33.5381 17.8161 30.0064 17.8161C26.7053 17.8161 24.3387 16.5904 24.3387 13.7019V8.15552H27.6277V13.7019C27.6277 14.7335 28.5136 15.3767 30.1399 15.3767C31.6934 15.3767 32.6158 14.7092 32.6158 13.714V8.15552H35.8683Z" fill="#394149"/>
<path d="M46.8223 15.1461V17.6826H37.7321V8.15552H41.0211V15.1461H46.8223Z" fill="#394149"/>
<path d="M56.5968 10.5464V8.15552H45.2249V10.5464H49.2421V17.6826H52.5675V10.5464H56.5968Z" fill="#394149"/>
<path fill-rule="evenodd" clip-rule="evenodd" d="M68.2631 9.12652C68.7001 9.57552 68.907 10.1945 68.907 11.0561C68.907 11.7965 68.725 12.4276 68.421 12.8523C68.081 13.3135 67.559 13.7019 66.916 13.799L69.793 17.6826H66.1761L63.809 14.3208H60.8602V17.6826H57.6198V8.15552H65.2051C66.7101 8.15552 67.6931 8.51962 68.2631 9.12652ZM65.642 11.8572C65.727 11.7115 65.751 11.5173 65.751 11.3596C65.751 11.1775 65.727 10.9833 65.642 10.862C65.472 10.5464 65.1321 10.4615 64.6221 10.4615H60.8723V12.197H64.683C65.205 12.197 65.521 12.0999 65.642 11.8572Z" fill="#394149"/>
<path fill-rule="evenodd" clip-rule="evenodd" d="M74.171 15.9229H79.317L80.154 17.6826H83.662L78.856 8.15552H74.936L69.851 17.6826H73.285L74.171 15.9229ZM78.285 13.7868H75.239L76.441 11.4931L76.805 10.6192L77.145 11.4809L78.285 13.7868Z" fill="#394149"/>
<path fill-rule="evenodd" clip-rule="evenodd" d="M67.916 19.4768C65.88 19.4768 64.809 20.4418 64.809 21.8598C64.809 23.4603 65.933 24.2722 67.916 24.2722C70.099 24.2722 71.017 23.3308 71.017 21.8598C71.017 20.3653 69.981 19.4768 67.916 19.4768ZM67.916 23.0896C66.757 23.0896 66.421 22.613 66.421 21.8775C66.421 21.1538 66.786 20.6772 67.91 20.6772C69.14 20.6772 69.416 21.2126 69.416 21.8775C69.416 22.5836 69.081 23.0896 67.916 23.0896Z" fill="#394149"/>
<path d="M61.7913 24.2017V21.4657H58.7199V22.4601H60.3615C60.3498 22.5366 60.2909 22.6837 60.2144 22.7719C60.0438 22.972 59.5907 23.1485 59.0023 23.1485C58.3904 23.1485 57.9962 22.9896 57.7844 22.7425C57.6432 22.5601 57.5608 22.3012 57.5608 21.9129C57.5608 21.5069 57.6432 21.2304 57.802 21.048C58.0315 20.7891 58.4198 20.6773 58.9906 20.6773C59.5025 20.6773 59.8555 20.7949 60.0203 20.942C60.1262 21.0303 60.2085 21.1539 60.2262 21.2362H61.7501C61.7443 21.0891 61.6972 20.8538 61.6148 20.6832C61.25 19.9418 60.4027 19.5005 58.9612 19.5005C57.7079 19.5005 56.8665 19.8829 56.4017 20.4596C56.0957 20.8538 55.9545 21.348 55.9545 21.9011C55.9545 22.5131 56.1192 23.0367 56.3899 23.3839C56.8488 23.9782 57.6667 24.2723 58.6493 24.2723C59.5143 24.2723 60.1085 24.0664 60.4851 23.7546L60.5263 24.2017H61.7913Z" fill="#394149"/>
<path d="M45.7632 21.4068C46.9576 21.5362 47.4695 21.9599 47.4695 22.766C47.4695 23.7427 46.5163 24.2722 44.6393 24.2722C42.8918 24.2722 42.1387 23.778 41.8503 23.1308C41.7856 22.9778 41.7562 22.7895 41.7385 22.6718H43.4331C43.4449 22.7424 43.4861 22.8483 43.5449 22.9189C43.6861 23.0896 44.0803 23.1896 44.7511 23.1896C45.6161 23.1896 45.822 23.066 45.822 22.8366C45.822 22.5894 45.6102 22.5365 44.8276 22.4541C44.5158 22.4247 44.0215 22.3776 43.8156 22.36C42.3211 22.2246 41.768 21.7598 41.768 20.9655C41.768 20.1417 42.7447 19.5122 44.5275 19.5122C46.1103 19.5122 46.8458 19.9829 47.1518 20.5713C47.2459 20.7478 47.3047 20.9478 47.3224 21.089H45.6278C45.6219 21.0243 45.5984 20.9596 45.5337 20.8772C45.4042 20.7066 45.0747 20.5948 44.4863 20.5948C43.6567 20.5948 43.439 20.6948 43.439 20.9066C43.439 21.142 43.7156 21.195 44.6393 21.295C44.9982 21.3244 45.569 21.3832 45.7632 21.4068Z" fill="#394149"/>
<path fill-rule="evenodd" clip-rule="evenodd" d="M28.8707 19.977C29.1825 20.2241 29.359 20.6419 29.359 21.2479C29.359 21.7422 29.2355 22.1128 29.0001 22.3717C28.6824 22.7365 28.1587 22.9013 27.4762 22.9072C27.2643 22.9131 25.4521 22.9072 25.4521 22.9072V24.2016H23.8693V19.5828H27.4526C28.0881 19.5828 28.5706 19.7122 28.8707 19.977ZM27.6998 21.6068C27.7468 21.5245 27.7704 21.4185 27.7704 21.2714C27.7704 21.1185 27.7409 20.989 27.688 20.9184C27.588 20.7713 27.3997 20.7007 27.0937 20.7007H25.4403V21.8304H27.0819C27.4114 21.8304 27.6056 21.7539 27.6998 21.6068Z" fill="#394149"/>
<path fill-rule="evenodd" clip-rule="evenodd" d="M35.149 20.0535C35.3609 20.2712 35.4609 20.5713 35.4609 20.989C35.4609 21.3479 35.3726 21.6539 35.2255 21.8598C35.0608 22.0834 34.8078 22.2717 34.4959 22.3188L35.8904 24.2016H34.137L32.9896 22.5718H31.5598V24.2016H29.9888V19.5828H33.6663C34.3959 19.5828 34.8725 19.7593 35.149 20.0535ZM33.8781 21.3774C33.9193 21.3068 33.931 21.2126 33.931 21.1361C33.931 21.0479 33.9193 20.9537 33.8781 20.8949C33.7957 20.7419 33.631 20.7007 33.3839 20.7007H31.5657V21.5421H33.4133C33.6663 21.5421 33.8193 21.495 33.8781 21.3774Z" fill="#394149"/>
<path d="M41.2616 24.2016V23.0543H37.949V22.4541H41.1263V21.3303H37.949V20.736H41.2204V19.5828H36.3956V24.2016H41.2616Z" fill="#394149"/>
<path d="M53.1952 20.7419V19.5828H47.682V20.7419H49.6295V24.2016H51.2417V20.7419H53.1952Z" fill="#394149"/>
<path d="M55.3151 19.5828V24.2016H53.697V19.5828H55.3151Z" fill="#394149"/>
<path d="M64.17 19.5828V24.2016H62.5516V19.5828H64.17Z" fill="#394149"/>
<path d="M77.26 19.5828V22.4188C77.26 23.6662 76.13 24.2664 74.418 24.2664C72.818 24.2664 71.67 23.6721 71.67 22.2717V19.5828H73.265V22.2717C73.265 22.7718 73.694 23.0837 74.483 23.0837C75.236 23.0837 75.683 22.7601 75.683 22.2776V19.5828H77.26Z" fill="#394149"/>
<path d="M83.612 22.766C83.612 21.9599 83.1 21.5362 81.906 21.4068C81.711 21.3832 81.141 21.3244 80.782 21.295C79.858 21.195 79.581 21.142 79.581 20.9066C79.581 20.6948 79.799 20.5948 80.629 20.5948C81.217 20.5948 81.547 20.7066 81.676 20.8772C81.741 20.9596 81.764 21.0243 81.77 21.089H83.465C83.447 20.9478 83.388 20.7478 83.294 20.5713C82.988 19.9829 82.253 19.5122 80.67 19.5122C78.887 19.5122 77.91 20.1417 77.91 20.9655C77.91 21.7598 78.464 22.2246 79.958 22.36L80.054 22.3685L80.214 22.3831L80.97 22.4541C81.753 22.5365 81.964 22.5894 81.964 22.8366C81.964 23.066 81.759 23.1896 80.894 23.1896C80.223 23.1896 79.829 23.0896 79.687 22.9189C79.629 22.8483 79.587 22.7424 79.576 22.6718H77.881C77.899 22.7895 77.928 22.9778 77.993 23.1308C78.281 23.778 79.034 24.2722 80.782 24.2722C82.659 24.2722 83.612 23.7427 83.612 22.766Z" fill="#394149"/>
<path fill-rule="evenodd" clip-rule="evenodd" d="M42.4666 25.9702C41.1435 25.9702 40.4475 26.5974 40.4475 27.519C40.4475 28.5591 41.1779 29.0868 42.4666 29.0868C43.8854 29.0868 44.4819 28.475 44.4819 27.519C44.4819 26.5477 43.8089 25.9702 42.4666 25.9702ZM42.4666 28.3182C41.7133 28.3182 41.4953 28.0084 41.4953 27.5304C41.4953 27.0601 41.7324 26.7503 42.4628 26.7503C43.262 26.7503 43.4418 27.0983 43.4418 27.5304C43.4418 27.9893 43.2238 28.3182 42.4666 28.3182Z" fill="#394149"/>
<path d="M35.1085 28.1079C35.1085 27.584 34.7758 27.3086 33.9995 27.2245C33.8733 27.2092 33.5024 27.171 33.2691 27.1519C32.6687 27.0868 32.489 27.0524 32.489 26.8995C32.489 26.7618 32.6305 26.6968 33.1697 26.6968C33.5521 26.6968 33.7662 26.7694 33.8504 26.8803C33.8924 26.9339 33.9077 26.9759 33.9116 27.018H35.0129C35.0014 26.9262 34.9632 26.7962 34.902 26.6815C34.7031 26.2991 34.2251 25.9932 33.1964 25.9932C32.0378 25.9932 31.403 26.4023 31.403 26.9377C31.403 27.454 31.7624 27.7561 32.7337 27.844C32.8676 27.8555 33.1888 27.8861 33.3915 27.9052C33.9001 27.9587 34.0377 27.9932 34.0377 28.1538C34.0377 28.3029 33.9039 28.3832 33.3418 28.3832C32.9058 28.3832 32.6496 28.3182 32.5578 28.2073C32.5196 28.1614 32.4928 28.0926 32.4852 28.0467H31.3838C31.3953 28.1232 31.4144 28.2455 31.4565 28.345C31.6439 28.7656 32.1334 29.0868 33.2691 29.0868C34.489 29.0868 35.1085 28.7427 35.1085 28.1079Z" fill="#394149"/>
<path fill-rule="evenodd" clip-rule="evenodd" d="M27.4731 28.1918C27.4731 28.3983 27.4157 28.601 27.301 28.7348C27.1251 28.949 26.7962 29.0407 26.3718 29.0407H23.7064V26.0388H26.2991C26.7121 26.0388 26.976 26.1383 27.1213 26.2874C27.2513 26.4174 27.3087 26.5895 27.3087 26.7845C27.3087 26.9796 27.2628 27.1402 27.1634 27.2587C27.083 27.3582 26.9454 27.4346 26.8001 27.4538C27.0142 27.4805 27.2169 27.5876 27.3316 27.7367C27.4272 27.8476 27.4731 28.0159 27.4731 28.1918ZM26.1844 27.1402C26.2226 27.0981 26.2456 27.0369 26.2456 26.9643C26.2456 26.8916 26.2226 26.8304 26.1729 26.7884C26.1194 26.7386 26.0199 26.7195 25.8746 26.7195H24.7083V27.209H25.9014C26.0314 27.209 26.1309 27.1899 26.1844 27.1402ZM26.0123 28.3601C26.192 28.3601 26.2991 28.3371 26.3603 28.2798C26.3985 28.2415 26.4138 28.1842 26.4138 28.1115C26.4138 28.035 26.3947 27.9777 26.3488 27.9318C26.2915 27.8821 26.192 27.8591 26.0238 27.8591H24.7083V28.3601H26.0123Z" fill="#394149"/>
<path d="M31.0739 28.2951V29.0407H27.9114V26.0388H31.0471V26.7884H28.9209V27.1746H30.9859V27.905H28.9209V28.2951H31.0739Z" fill="#394149"/>
<path d="M38.8297 26.0388V26.7922H37.5601V29.0407H36.5124V26.7922H35.2466V26.0388H38.8297Z" fill="#394149"/>
<path d="M47.9812 26.0388V26.7998H45.943V27.2243H47.8856V27.9777H45.943V29.0407H44.9143V26.0388H47.9812Z" fill="#394149"/>
<path d="M53.1624 26.7922V26.0388H49.5793V26.7922H50.8451V29.0407H51.8929V26.7922H53.1624Z" fill="#394149"/>
<path d="M57.0719 26.0388V29.0407H56.047V27.9509H54.5097V29.0407H53.4849V26.0388H54.5097V27.1325H56.047V26.0388H57.0719Z" fill="#394149"/>
<path d="M60.8412 29.0407V28.2951H58.6882V27.905H60.7532V27.1746H58.6882V26.7884H60.8144V26.0388H57.6787V29.0407H60.8412Z" fill="#394149"/>
<path d="M67.181 26.0388H68.171L67.074 29.0407H65.95C65.95 29.0407 65.349 27.2473 65.345 27.1975C65.342 27.2473 64.737 29.0407 64.737 29.0407H63.617L62.4927 26.0388H63.605C63.605 26.0388 64.256 27.9279 64.256 27.9738C64.256 27.9279 64.856 26.0388 64.856 26.0388H65.931C65.931 26.0388 66.535 27.9279 66.535 27.9738C66.535 27.9279 67.181 26.0388 67.181 26.0388Z" fill="#394149"/>
<path fill-rule="evenodd" clip-rule="evenodd" d="M70.135 25.9702C68.812 25.9702 68.116 26.5974 68.116 27.519C68.116 28.5591 68.846 29.0868 70.135 29.0868C71.554 29.0868 72.15 28.475 72.15 27.519C72.15 26.5477 71.477 25.9702 70.135 25.9702ZM70.135 28.3182C69.382 28.3182 69.164 28.0084 69.164 27.5304C69.164 27.0601 69.401 26.7503 70.131 26.7503C70.931 26.7503 71.11 27.0983 71.11 27.5304C71.11 27.9893 70.892 28.3182 70.135 28.3182Z" fill="#394149"/>
<path fill-rule="evenodd" clip-rule="evenodd" d="M75.937 26.3448C76.074 26.4863 76.139 26.6813 76.139 26.9528C76.139 27.1861 76.082 27.3849 75.986 27.5188C75.879 27.6641 75.715 27.7865 75.512 27.817L76.418 29.0407H75.279L74.533 27.9815H73.604V29.0407H72.583V26.0388H74.973C75.447 26.0388 75.757 26.1536 75.937 26.3448ZM75.111 27.2052C75.137 27.1593 75.145 27.0981 75.145 27.0484C75.145 26.991 75.137 26.9299 75.111 26.8916C75.057 26.7922 74.95 26.7654 74.789 26.7654H73.608V27.3123H74.808C74.973 27.3123 75.072 27.2817 75.111 27.2052Z" fill="#394149"/>
<path d="M79.6109 29.0407V28.2415H77.7829V26.0388H76.7469V29.0407H79.6109Z" fill="#394149"/>
<path fill-rule="evenodd" clip-rule="evenodd" d="M83.6659 27.4843C83.6659 27.9509 83.6199 28.2033 83.4829 28.4404C83.2759 28.8189 82.8669 29.0407 82.1439 29.0407H80.0179V26.0388H82.1209C82.8399 26.0388 83.2649 26.2415 83.4749 26.5895C83.6239 26.8228 83.6659 27.0713 83.6659 27.4843ZM81.9489 28.3027C82.2739 28.3027 82.4579 28.2262 82.5689 28.058C82.6379 27.9547 82.6569 27.7138 82.6569 27.5035C82.6529 27.3123 82.6299 27.1096 82.5689 27.0178C82.4499 26.8381 82.2709 26.7731 81.9569 26.7731H81.0429V28.3027H81.9489Z" fill="#394149"/>
<path d="M42.6449 43.6404H41.0603C41.0603 43.6404 40.0263 46.6629 40.0263 46.7363C40.0263 46.6629 39.0596 43.6404 39.0596 43.6404H37.3403C37.3403 43.6404 36.3797 46.6629 36.3797 46.7363C36.3797 46.6629 35.3396 43.6404 35.3396 43.6404H33.5591L35.3579 48.4433H37.1506C37.1506 48.4433 38.1173 45.5738 38.1234 45.4943C38.1296 45.5738 39.0901 48.4433 39.0901 48.4433H40.8889L42.6449 43.6404Z" fill="#394149"/>
<path d="M44.8133 48.4433V43.6404H43.1307V48.4433H44.8133Z" fill="#394149"/>
<path d="M51.3579 43.6404V48.4433H49.7181L47.3381 45.7696V48.4433H45.7596V43.6404H47.4849L49.7915 46.253V43.6404H51.3579Z" fill="#394149"/>
<path d="M57.9124 48.4433V43.6404H56.3461V46.253L54.0395 43.6404H52.3141V48.4433H53.8926V45.7696L56.2727 48.4433H57.9124Z" fill="#394149"/>
<path d="M63.9291 47.2502V48.4433H58.8687V43.6404H63.8861V44.8396H60.484V45.4576H63.7881V46.6262H60.484V47.2502H63.9291Z" fill="#394149"/>
<path fill-rule="evenodd" clip-rule="evenodd" d="M70.3961 45.1027C70.3961 44.6683 70.2921 44.3563 70.0721 44.1299C69.7841 43.824 69.2891 43.6404 68.5301 43.6404H64.7061V48.4433H66.34V46.7485H67.8271L69.0201 48.4433H70.8431L69.3931 46.4855C69.7171 46.4365 69.9801 46.2407 70.1521 46.0082C70.3041 45.7941 70.3961 45.4759 70.3961 45.1027ZM68.8051 45.2557C68.8051 45.3352 68.7931 45.4331 68.7501 45.5065C68.6891 45.6289 68.5301 45.6778 68.2671 45.6778H66.3461V44.8029H68.2361C68.4931 44.8029 68.6651 44.8457 68.7501 45.0048C68.7931 45.066 68.8051 45.1639 68.8051 45.2557Z" fill="#394149"/>
<path d="M37.7596 35.167L37.0961 33.1248L36.4325 35.167H34.2852L36.0224 36.4291L35.3589 38.4713L37.0961 37.2092L38.8332 38.4713L38.1697 36.4291L39.9069 35.167H37.7596Z" fill="#394149"/>
<path d="M44.7565 33.1233L45.4336 35.1655H47.6247L45.8521 36.4277L46.5292 38.4698L44.7565 37.2077L42.9839 38.4698L43.661 36.4277L41.8883 35.1655H44.0794L44.7565 33.1233Z" fill="#394149"/>
<path d="M53.033 35.1655L52.356 33.1233L51.6789 35.1655H49.4877L51.2604 36.4277L50.5833 38.4698L52.356 37.2077L54.1286 38.4698L53.4515 36.4277L55.2242 35.1655H53.033Z" fill="#394149"/>
<path d="M59.9558 33.1233L60.6329 35.1655H62.824L61.0514 36.4277L61.7285 38.4698L59.9558 37.2077L58.1832 38.4698L58.8603 36.4277L57.0876 35.1655H59.2788L59.9558 33.1233Z" fill="#394149"/>
<path d="M68.2801 35.1655L67.6161 33.1233L66.9521 35.1655H64.8051L66.5421 36.4277L65.8791 38.4698L67.6161 37.2077L69.3531 38.4698L68.6901 36.4277L70.4271 35.1655H68.2801Z" fill="#394149"/>
<path d="M96.1381 11.2225C96.7731 9.60799 96.4971 7.75129 95.9121 6.18989C95.2961 4.54699 94.2241 2.90829 92.6221 2.04419C92.5421 3.77569 93.0711 5.48619 93.6491 7.02869C94.1691 8.41599 94.8061 9.89399 95.8591 11.0413C96.0211 11.9105 96.1451 12.7773 96.2321 13.6401C95.8831 12.7288 95.3181 11.8982 94.6121 11.2302C93.7031 10.3697 92.3501 9.70589 91.0811 10.0985C91.4531 11.5016 92.3001 12.8468 93.3041 13.7904C94.0941 14.5331 95.1371 15.4847 96.3651 15.5222C96.4161 16.7923 96.3871 18.0508 96.2821 19.2922C96.1091 18.3838 95.7381 17.5284 95.201 16.8914C94.4641 16.016 93.3711 14.9467 91.9761 15.1256C92.0521 16.5458 92.6191 18.0009 93.4081 19.0943C94.034 19.9632 94.8621 21.0707 96.0371 21.3568C95.8491 22.5763 95.5871 23.7756 95.2541 24.9492C95.2511 24.0506 95.053 23.1685 94.659 22.461C94.104 21.4634 93.2391 20.2191 91.8421 20.1218C91.6371 21.5151 91.9151 23.0382 92.4751 24.2496C92.9221 25.2179 93.5191 26.4527 94.6061 26.9636C94.1491 28.2266 93.6091 29.4544 92.9891 30.6393C93.2071 29.6179 93.1981 28.5416 92.9411 27.5731C92.5861 26.2383 91.7061 24.8361 90.2921 24.4293C89.7921 25.9031 89.8611 27.5475 90.1521 29.0453C90.3911 30.2786 90.8601 31.727 91.9121 32.5281C91.2241 33.6388 90.4631 34.7047 89.6321 35.7189C90.0791 34.7243 90.3001 33.6364 90.1811 32.6405C90.0081 31.1901 89.6011 29.6388 88.1201 28.8658C87.2791 30.3158 87.0841 31.9425 87.0131 33.5492C86.9551 34.8482 87.1421 36.4504 88.0451 37.5072C87.0521 38.5386 85.982 39.5039 84.8391 40.3941C85.5771 39.447 86.0941 38.3357 86.2031 37.2367C86.3581 35.6838 86.2831 33.9744 84.9041 32.8347C83.7261 34.0657 83.0221 35.8786 82.6781 37.4532C82.3731 38.8453 82.0551 40.4932 82.7801 41.8633C81.3251 42.8135 79.7711 43.6506 78.1281 44.3596C79.2841 43.5358 80.2301 42.4055 80.6811 41.2385C81.2721 39.7091 81.6371 37.8865 80.4871 36.3547C78.9451 37.3422 77.8121 39.0269 76.9191 40.5636C76.1531 41.8822 75.3601 43.7021 75.7541 45.2724C74.8441 45.581 73.9111 45.852 72.9561 46.0832L73.0131 46.3177C73.9711 46.0856 74.9081 45.8137 75.8211 45.5042C76.4611 47.3948 78.5571 48.0196 80.2521 48.2953C82.6671 48.6882 85.5431 47.927 87.6051 46.3933C86.5161 44.8554 84.2961 44.6994 82.6221 44.5817L82.6001 44.5802C80.7661 44.4513 78.7821 44.6235 76.9381 45.1028C79.0681 44.2917 81.0621 43.2717 82.9011 42.0727L82.9261 42.1127C83.9331 43.7489 85.9571 43.8129 87.5451 43.7095C89.7001 43.5693 92.1871 42.2594 93.6261 40.4487C92.2721 39.2609 90.2731 39.5932 88.7231 39.8507L88.715 39.8521C86.986 40.1395 85.0971 40.7664 83.5111 41.7318C83.6621 41.6129 83.8091 41.4872 83.9531 41.3553C85.4951 40.2558 86.9171 39.0259 88.2081 37.6849C88.2261 37.7028 88.2441 37.7204 88.2621 37.7379C89.5181 38.991 91.3411 38.6604 92.7651 38.2503C94.6751 37.7003 96.6551 36.041 97.604 34.1361C96.133 33.3121 94.3751 33.991 93.0081 34.5282C91.5051 35.1182 89.9161 36.0623 88.6941 37.266C88.8201 37.107 88.9411 36.9408 89.0551 36.7688C90.1901 35.4871 91.2121 34.1146 92.1101 32.6666L92.1491 32.6907L92.159 32.697C93.5781 33.6102 95.1861 32.9471 96.4601 32.2949C98.1891 31.41 99.5791 29.4652 100.179 27.5526C98.6451 27.0613 97.1301 28.0256 95.9521 28.7893C94.6621 29.625 93.3561 30.817 92.4601 32.1841C92.5261 32.0492 92.5881 31.9112 92.6451 31.7707C93.5061 30.2684 94.2371 28.6914 94.8291 27.0555L94.8601 27.0659L94.8651 27.0679C96.1561 27.5566 97.5931 26.7939 98.5301 25.9575C99.8321 24.7943 100.751 23.006 100.966 21.2589C99.6201 21.0845 98.3511 22.1261 97.4841 23.0144C96.4861 24.0376 95.5891 25.2469 95.0381 26.5903C95.0791 26.4437 95.1141 26.2948 95.1431 26.1443C95.6441 24.6075 96.0241 23.0226 96.2741 21.4024L96.312 21.4074C97.6721 21.6276 98.9301 20.5927 99.6821 19.5882C100.74 18.1747 101.285 16.2184 101.148 14.4452C99.7891 14.5404 98.7531 15.834 98.0821 16.8806C97.3041 18.0927 96.6591 19.4646 96.3771 20.8999C96.3861 20.7851 96.3911 20.6697 96.3931 20.5539C96.6001 18.9046 96.6741 17.2215 96.6061 15.5177C97.9951 15.469 99.0241 14.1794 99.5541 13.0358C100.311 11.4001 100.433 9.33229 99.9281 7.58979C98.6051 7.96109 97.8671 9.47839 97.4321 10.6465C96.9301 11.9933 96.5801 13.4624 96.5771 14.9228C96.5051 13.6976 96.3591 12.4626 96.1381 11.2225Z" fill="#394149"/>
</svg>
