<svg width="148" height="46" viewBox="0 0 148 46" fill="none" xmlns="http://www.w3.org/2000/svg">
<path fill-rule="evenodd" clip-rule="evenodd" d="M73.1756 7.40747C74.5634 6.01977 76.8134 6.01977 78.2012 7.40747C79.589 8.79527 79.589 11.0453 78.2012 12.4331L69.7403 20.894C67.3111 17.6384 67.575 13.0082 70.532 10.0512L73.1756 7.40747Z" fill="#4F9E91"/>
<path fill-rule="evenodd" clip-rule="evenodd" d="M85.271 26.4967C86.659 27.8844 86.659 30.1345 85.271 31.5222C83.884 32.91 81.6336 32.91 80.2458 31.5222L71.7849 23.0614C75.0405 20.6322 79.6707 20.896 82.6277 23.853L85.271 26.4967Z" fill="#EBE1C5"/>
<path fill-rule="evenodd" clip-rule="evenodd" d="M66.1821 38.5924C64.7944 39.9802 62.5443 39.9802 61.1566 38.5924C59.7688 37.2046 59.7688 34.9546 61.1566 33.5668L69.6174 25.106C72.0466 28.3616 71.7828 32.9918 68.8258 35.9487L66.1821 38.5924Z" fill="#EBCC6E"/>
<path fill-rule="evenodd" clip-rule="evenodd" d="M54.0865 19.5032C52.6987 18.1154 52.6987 15.8654 54.0865 14.4776C55.4743 13.0898 57.7243 13.0898 59.1121 14.4776L67.573 22.9385C64.3174 25.3677 59.6871 25.1038 56.7302 22.1469L54.0865 19.5032Z" fill="#ED834E"/>
<path fill-rule="evenodd" clip-rule="evenodd" d="M71.2849 37.5563C73.3312 35.2811 74.2823 32.3698 74.138 29.5034L78.2014 33.5668C78.2115 33.5769 78.2217 33.587 78.2319 33.5971V36.4981C78.2319 38.4607 76.6409 40.0517 74.6783 40.0517C73.0842 40.0517 71.7353 39.0021 71.2849 37.5563Z" fill="#ED834E"/>
<path fill-rule="evenodd" clip-rule="evenodd" d="M55.1226 24.6057C57.3977 26.6521 60.309 27.6032 63.1754 27.4589L59.1121 31.5223C59.1019 31.5324 59.0918 31.5426 59.0818 31.5527H56.1808C54.2182 31.5528 52.6272 29.9617 52.6272 27.9991C52.6272 26.4051 53.6768 25.0561 55.1226 24.6057Z" fill="#4F9E91"/>
<path fill-rule="evenodd" clip-rule="evenodd" d="M84.235 21.3941C81.9601 19.3477 79.0488 18.3966 76.1824 18.5408L80.2457 14.4775C80.2559 14.4674 80.2659 14.4572 80.276 14.447H83.1771C85.14 14.447 86.731 16.0381 86.731 18.0007C86.731 19.5948 85.681 20.9437 84.235 21.3941Z" fill="#EBCC6E"/>
<path fill-rule="evenodd" clip-rule="evenodd" d="M68.073 8.44374C66.0266 10.7189 65.0756 13.6302 65.2198 16.4967L61.1565 12.4333C61.1463 12.4232 61.1362 12.4131 61.126 12.403V9.50194C61.126 7.53934 62.717 5.94824 64.6796 5.94824C66.2737 5.94824 67.6226 6.99794 68.073 8.44374Z" fill="#EBE1C5"/>
<path fill-rule="evenodd" clip-rule="evenodd" d="M64.6798 3.05713C61.1204 3.05713 58.2349 5.94263 58.2349 9.50203V10.7555C56.0935 10.196 53.7203 10.7552 52.0422 12.4333C49.5253 14.9502 49.5253 19.0309 52.0422 21.5478L52.9285 22.4341C51.0187 23.5527 49.7361 25.6262 49.7361 27.9993C49.7361 31.5587 52.6216 34.4442 56.181 34.4442H57.4344C56.8749 36.5856 57.4341 38.9588 59.1122 40.6368C61.6291 43.1537 65.7098 43.1537 68.2267 40.6368L70.8703 37.9932C73.2024 35.6611 74.2916 32.5567 74.1379 29.5033L78.2014 33.5667C80.7183 36.0836 84.7991 36.0836 87.3161 33.5667C89.8331 31.0498 89.8331 26.9691 87.3161 24.4523L86.4301 23.5661C88.3391 22.4475 89.6221 20.374 89.6221 18.0009C89.6221 14.4415 86.7361 11.556 83.1771 11.556H81.9236C82.4832 9.41453 81.9239 7.04133 80.2458 5.36323C77.729 2.84633 73.6483 2.84633 71.1314 5.36323L68.4877 8.00693C66.1556 10.339 65.0664 13.4433 65.2201 16.4967L61.1567 12.4333C61.1465 12.4232 61.1364 12.4131 61.1262 12.403V9.50203C61.1262 7.53943 62.7172 5.94843 64.6798 5.94843C66.2739 5.94843 67.6228 6.99803 68.0732 8.44383C68.2067 8.29543 68.3449 8.14973 68.4877 8.00693L70.245 6.24953C69.1264 4.33973 67.0529 3.05713 64.6798 3.05713ZM80.2761 14.4473C80.266 14.4574 80.256 14.4676 80.2458 14.4777L76.1825 18.541C79.049 18.3968 81.9602 19.3478 84.2351 21.3943C85.6811 20.9439 86.7311 19.5949 86.7311 18.0009C86.7311 16.0383 85.1401 14.4473 83.1771 14.4473H80.2761ZM59.0818 31.5529C59.0919 31.5427 59.102 31.5325 59.1122 31.5224L63.1755 27.459C60.3091 27.6033 57.3979 26.6522 55.1228 24.6059C53.677 25.0563 52.6273 26.4052 52.6273 27.9993C52.6273 29.9619 54.2184 31.5529 56.181 31.5529H59.0818ZM74.6783 42.9431C72.3051 42.9431 70.2316 41.6604 69.113 39.7506L70.8703 37.9932C71.0132 37.8504 71.1513 37.7047 71.2848 37.5563C71.7352 39.0021 73.0841 40.0518 74.6783 40.0518C76.6409 40.0518 78.2319 38.4608 78.2319 36.4982V33.5972C79.0647 34.4191 80.0657 34.9683 81.1232 35.2446V36.4982C81.1232 40.0576 78.2377 42.9431 74.6783 42.9431ZM78.2014 7.40763C76.8136 6.01993 74.5636 6.01993 73.1758 7.40763L70.5321 10.0513C67.5752 13.0083 67.3113 17.6385 69.7405 20.8941L78.2014 12.4332C79.5892 11.0454 79.5892 8.79543 78.2014 7.40763ZM85.2711 31.5223C86.6591 30.1345 86.6591 27.8845 85.2711 26.4967L82.6277 23.853C79.6708 20.8961 75.0405 20.6322 71.7849 23.0614L80.2458 31.5223C81.6336 32.9101 83.8841 32.9101 85.2711 31.5223ZM66.1822 38.5924C64.7944 39.9802 62.5444 39.9802 61.1566 38.5924C59.7689 37.2046 59.7689 34.9546 61.1566 33.5668L69.6175 25.1059C72.0467 28.3615 71.7828 32.9918 68.8259 35.9487L66.1822 38.5924ZM54.0866 14.4777C52.6989 15.8655 52.6989 18.1155 54.0866 19.5033L56.7303 22.147C59.6873 25.1039 64.3175 25.3678 67.5731 22.9386L59.1122 14.4777C57.7244 13.09 55.4744 13.09 54.0866 14.4777Z" fill="#3D3A2C"/>
<path d="M2.03271 16.0898H5.19331V25.911H10.6217V28.5716H2.03271V16.0898Z" fill="#3D3A2C"/>
<path d="M16.3603 28.8396C15.3008 28.8396 14.3722 28.6491 13.5746 28.2682C12.777 27.8753 12.158 27.3396 11.7175 26.6611C11.289 25.9706 11.0747 25.179 11.0747 24.2861C11.0747 23.3933 11.289 22.6076 11.7175 21.9291C12.158 21.2386 12.777 20.7029 13.5746 20.322C14.3722 19.9291 15.3008 19.7327 16.3603 19.7327C17.4198 19.7327 18.3483 19.9291 19.1459 20.322C19.9435 20.7029 20.5566 21.2386 20.9851 21.9291C21.4256 22.6076 21.6458 23.3933 21.6458 24.2861C21.6458 25.179 21.4256 25.9706 20.9851 26.6611C20.5566 27.3396 19.9435 27.8753 19.1459 28.2682C18.3483 28.6491 17.4198 28.8396 16.3603 28.8396ZM16.3603 26.3932C16.9912 26.3932 17.4912 26.2087 17.8602 25.8397C18.2412 25.4587 18.4316 24.9409 18.4316 24.2861C18.4316 23.6314 18.2412 23.1195 17.8602 22.7505C17.4912 22.3695 16.9912 22.1791 16.3603 22.1791C15.7293 22.1791 15.2234 22.3695 14.8425 22.7505C14.4734 23.1195 14.2889 23.6314 14.2889 24.2861C14.2889 24.9409 14.4734 25.4587 14.8425 25.8397C15.2234 26.2087 15.7293 26.3932 16.3603 26.3932Z" fill="#3D3A2C"/>
<path d="M27.5492 32.6788C26.9778 32.6788 26.4004 32.6252 25.8171 32.5181C25.2457 32.4109 24.7516 32.2681 24.335 32.0895V29.911C25.2754 30.3157 26.3468 30.5181 27.5492 30.5181C28.4182 30.5181 29.0432 30.3395 29.4241 29.9824C29.817 29.6253 30.0134 29.1015 30.0134 28.411V27.8932C29.6682 28.1908 29.2396 28.4229 28.7277 28.5896C28.2277 28.7563 27.692 28.8396 27.1206 28.8396C26.2159 28.8396 25.4183 28.6491 24.7278 28.2682C24.0374 27.8872 23.4957 27.3515 23.1029 26.6611C22.7219 25.9706 22.5315 25.179 22.5315 24.2861C22.5315 23.3814 22.7219 22.5838 23.1029 21.8934C23.4838 21.2029 24.0195 20.6731 24.71 20.3041C25.4004 19.9232 26.1921 19.7327 27.0849 19.7327C28.3111 19.7327 29.3229 20.1077 30.1205 20.8577V20.0005H33.1562V27.9825C33.1562 29.4705 32.6978 30.6253 31.7812 31.4467C30.8765 32.2681 29.4658 32.6788 27.5492 32.6788ZM27.9063 26.4111C28.3944 26.4111 28.8289 26.2861 29.2098 26.0361C29.5908 25.7861 29.8586 25.4528 30.0134 25.0361V23.5362C29.8467 23.1195 29.5729 22.7921 29.192 22.554C28.811 22.3041 28.3825 22.1791 27.9063 22.1791C27.2635 22.1791 26.7456 22.3695 26.3528 22.7505C25.9599 23.1195 25.7635 23.6254 25.7635 24.2683C25.7635 24.923 25.9599 25.4468 26.3528 25.8397C26.7456 26.2206 27.2635 26.4111 27.9063 26.4111Z" fill="#3D3A2C"/>
<path d="M39.239 28.8396C38.1795 28.8396 37.251 28.6491 36.4534 28.2682C35.6558 27.8753 35.0367 27.3396 34.5963 26.6611C34.1677 25.9706 33.9534 25.179 33.9534 24.2861C33.9534 23.3933 34.1677 22.6076 34.5963 21.9291C35.0367 21.2386 35.6558 20.7029 36.4534 20.322C37.251 19.9291 38.1795 19.7327 39.239 19.7327C40.2985 19.7327 41.227 19.9291 42.0246 20.322C42.8222 20.7029 43.4353 21.2386 43.8639 21.9291C44.3043 22.6076 44.5246 23.3933 44.5246 24.2861C44.5246 25.179 44.3043 25.9706 43.8639 26.6611C43.4353 27.3396 42.8222 27.8753 42.0246 28.2682C41.227 28.6491 40.2985 28.8396 39.239 28.8396ZM39.239 26.3932C39.8699 26.3932 40.3699 26.2087 40.739 25.8397C41.1199 25.4587 41.3104 24.9409 41.3104 24.2861C41.3104 23.6314 41.1199 23.1195 40.739 22.7505C40.3699 22.3695 39.8699 22.1791 39.239 22.1791C38.6081 22.1791 38.1021 22.3695 37.7212 22.7505C37.3521 23.1195 37.1676 23.6314 37.1676 24.2861C37.1676 24.9409 37.3521 25.4587 37.7212 25.8397C38.1021 26.2087 38.6081 26.3932 39.239 26.3932Z" fill="#3D3A2C"/>
<path d="M94.9319 16.0898H98.0929V28.5716H94.9319V16.0898Z" fill="#3D3A2C"/>
<path d="M99.6931 20.0005H102.729V20.8577C103.526 20.1077 104.538 19.7327 105.764 19.7327C106.657 19.7327 107.449 19.9232 108.139 20.3041C108.83 20.6731 109.365 21.2029 109.746 21.8934C110.127 22.5719 110.318 23.3636 110.318 24.2683C110.318 25.1611 110.127 25.9587 109.746 26.6611C109.365 27.3515 108.83 27.8872 108.139 28.2682C107.461 28.6491 106.669 28.8396 105.764 28.8396C105.193 28.8396 104.645 28.7503 104.122 28.5717C103.61 28.4051 103.181 28.1729 102.836 27.8753V32.4823H99.6931V20.0005ZM104.943 26.3932C105.586 26.3932 106.104 26.2028 106.496 25.8218C106.889 25.4409 107.086 24.923 107.086 24.2683C107.086 23.6135 106.889 23.1017 106.496 22.7326C106.104 22.3517 105.586 22.1612 104.943 22.1612C104.467 22.1612 104.038 22.2862 103.657 22.5362C103.276 22.7743 103.003 23.1017 102.836 23.5183V25.0361C103.003 25.4528 103.276 25.7861 103.657 26.0361C104.038 26.2742 104.467 26.3932 104.943 26.3932Z" fill="#3D3A2C"/>
<path d="M115.003 28.8396C114.313 28.8396 113.593 28.7682 112.843 28.6253C112.093 28.4944 111.497 28.3039 111.057 28.0539V25.7504C111.545 26.0361 112.128 26.2742 112.807 26.4647C113.497 26.6432 114.128 26.7325 114.7 26.7325C115.116 26.7325 115.42 26.7027 115.61 26.6432C115.801 26.5837 115.896 26.4647 115.896 26.2861C115.896 26.1432 115.831 26.0301 115.7 25.9468C115.581 25.8516 115.354 25.7563 115.021 25.6611C114.7 25.554 114.325 25.4409 113.896 25.3218C113.17 25.1075 112.599 24.8873 112.182 24.6611C111.765 24.4349 111.456 24.1492 111.253 23.804C111.051 23.4588 110.95 23.0243 110.95 22.5005C110.95 21.5719 111.313 20.8815 112.039 20.4291C112.777 19.9648 113.783 19.7327 115.057 19.7327C115.676 19.7327 116.325 19.7982 117.003 19.9291C117.694 20.0601 118.211 20.2327 118.557 20.447V22.7148C118.2 22.4767 117.723 22.2802 117.128 22.1255C116.545 21.9707 115.997 21.8934 115.485 21.8934C115.081 21.8934 114.765 21.935 114.539 22.0183C114.313 22.0898 114.2 22.2207 114.2 22.4112C114.2 22.5898 114.313 22.7267 114.539 22.8219C114.765 22.9171 115.17 23.0362 115.753 23.179C116.134 23.2743 116.295 23.3159 116.235 23.304C116.997 23.5064 117.586 23.7326 118.003 23.9826C118.42 24.2326 118.711 24.5302 118.878 24.8754C119.057 25.2087 119.146 25.6373 119.146 26.1611C119.146 26.9825 118.789 27.6372 118.075 28.1253C117.372 28.6015 116.348 28.8396 115.003 28.8396Z" fill="#3D3A2C"/>
<path d="M123.838 28.8396C122.66 28.8396 121.773 28.5122 121.178 27.8575C120.595 27.2027 120.303 26.3397 120.303 25.2683V20.0005H123.446V24.9111C123.446 25.8992 123.892 26.3932 124.785 26.3932C125.19 26.3932 125.559 26.298 125.892 26.1075C126.225 25.917 126.499 25.6373 126.713 25.2683V20.0005H129.856V28.5717H126.821V27.6432C126.452 28.036 126.005 28.3336 125.481 28.536C124.958 28.7384 124.41 28.8396 123.838 28.8396Z" fill="#3D3A2C"/>
<path d="M131.465 20.0005H134.376V20.9291C134.733 20.5482 135.144 20.2565 135.608 20.0541C136.072 19.8398 136.566 19.7327 137.09 19.7327C137.733 19.7327 138.245 19.8279 138.626 20.0184C139.019 20.2089 139.334 20.4946 139.572 20.8755C139.929 20.5184 140.364 20.2386 140.876 20.0363C141.388 19.8339 141.906 19.7327 142.429 19.7327C143.56 19.7327 144.364 20.0244 144.84 20.6077C145.316 21.1791 145.554 22.0064 145.554 23.0897V28.5717H142.554V23.5362C142.554 23.06 142.465 22.7148 142.286 22.5005C142.108 22.2862 141.81 22.1791 141.394 22.1791C140.858 22.1791 140.423 22.3695 140.09 22.7505C140.102 22.9528 140.108 23.2624 140.108 23.679V28.5717H137.108V23.4112C137.108 22.9707 137.031 22.6552 136.876 22.4648C136.721 22.2743 136.447 22.1791 136.055 22.1791C135.447 22.1791 134.924 22.5183 134.483 23.1969V28.5717H131.465V20.0005Z" fill="#3D3A2C"/>
</svg>
