<svg width="187" height="41" viewBox="0 0 187 41" fill="none" xmlns="http://www.w3.org/2000/svg">
<g clip-path="url(#clip0_2005_504)">
<path fill-rule="evenodd" clip-rule="evenodd" d="M59.5372 2.72861C59.5372 1.33922 60.6758 0.212891 62.0805 0.212891H66.5111C67.5108 0.212891 68.4797 0.55559 69.2527 1.18265L70.6005 2.27593L70.6342 2.30634C70.6653 2.29596 70.6964 2.28582 70.7276 2.27593C73.1592 1.50554 76.1094 1.35903 79.1205 1.35903C82.1316 1.35903 85.0818 1.50554 87.5134 2.27593C87.5446 2.28582 87.5757 2.29596 87.6068 2.30634L87.6405 2.27593L88.9883 1.18265C89.7613 0.55559 90.7302 0.212891 91.7299 0.212891H96.1605C97.5652 0.212891 98.7038 1.33922 98.7038 2.72861V4.28379C98.7038 5.48704 98.1914 6.63463 97.2922 7.44503L96.2049 8.42502C95.6741 8.90344 95.037 9.25162 94.345 9.44144L94.0878 9.512C95.0953 11.8899 95.6519 14.4317 95.6519 16.4879C95.6519 24.7593 90.478 28.3316 85.9192 31.4792C82.3291 33.958 79.1205 36.1733 79.1205 40.2129C79.1205 36.1733 75.9119 33.958 72.3218 31.4792C67.763 28.3316 62.5891 24.7593 62.5891 16.4879C62.5891 14.4317 63.1457 11.8899 64.1532 9.512L63.896 9.44144C63.204 9.25162 62.5669 8.90344 62.0361 8.42502L60.9488 7.44503C60.0496 6.63463 59.5372 5.48704 59.5372 4.28379V2.72861ZM82.4268 23.2501C82.4268 23.6453 82.2526 24.0242 81.9426 24.3037C81.6326 24.5831 81.2121 24.7401 80.7736 24.7401C80.3951 24.7401 80.0299 24.623 79.7377 24.4112C80.2351 25.7282 81.508 26.9761 83.4441 24.9693C85.1533 23.1046 83.3681 19.1717 81.6289 16.8379C81.0492 16.06 80.0975 15.6856 79.1205 15.6856C78.1435 15.6856 77.1918 16.06 76.6121 16.8379C74.8729 19.1717 73.0877 23.1046 74.7969 24.9693C76.733 26.9761 78.0059 25.7282 78.5033 24.4112C78.2111 24.623 77.8459 24.7401 77.4674 24.7401C77.0289 24.7401 76.6084 24.5831 76.2984 24.3037C75.9884 24.0242 75.8142 23.6453 75.8142 23.2501H82.4268ZM72.7898 11.608H68.1844L71.8139 14.4827C72.6126 15.1152 73.78 14.913 74.2742 14.0565C74.8982 12.9751 74.0694 11.608 72.7898 11.608ZM85.4512 11.608H90.0566L86.4271 14.4827C85.6284 15.1152 84.461 14.913 83.9668 14.0565C83.3428 12.9751 84.1716 11.608 85.4512 11.608Z" fill="#72B800"/>
<path d="M104.19 28.5462H108.27V13.1562H104.19V28.5462ZM104.19 10.7562H108.27V7.09619H104.19V10.7562Z" fill="#355030"/>
<path d="M110.899 33.5863H114.979V26.8063H115.039C115.909 28.1263 117.319 28.9963 119.479 28.9963C123.439 28.9963 126.139 25.8463 126.139 20.8663C126.139 16.0663 123.529 12.7363 119.449 12.7363C117.349 12.7363 115.909 13.7263 114.919 15.0763H114.829V13.1563H110.899V33.5863ZM118.609 25.6063C116.179 25.6063 114.889 23.7763 114.889 20.9863C114.889 18.2263 115.909 16.0363 118.459 16.0363C120.979 16.0363 121.999 18.0763 121.999 20.9863C121.999 23.8963 120.679 25.6063 118.609 25.6063Z" fill="#355030"/>
<path d="M134.278 28.9963C138.118 28.9963 140.758 27.1363 140.758 24.0463C140.758 20.4463 137.908 19.7263 135.328 19.1863C133.138 18.7363 131.098 18.6163 131.098 17.2963C131.098 16.1863 132.148 15.5863 133.738 15.5863C135.478 15.5863 136.528 16.1863 136.708 17.8363H140.398C140.098 14.7463 137.848 12.7363 133.798 12.7363C130.288 12.7363 127.528 14.3263 127.528 17.6563C127.528 21.0163 130.228 21.7663 132.988 22.3063C135.088 22.7263 137.038 22.8763 137.038 24.3463C137.038 25.4263 136.018 26.1163 134.218 26.1163C132.388 26.1163 131.128 25.3363 130.858 23.5663H127.078C127.318 26.8363 129.808 28.9963 134.278 28.9963Z" fill="#355030"/>
<path d="M156.249 28.5463V13.1562H152.169V22.0363C152.169 24.0763 150.999 25.5163 149.079 25.5163C147.339 25.5163 146.529 24.5262 146.529 22.7262V13.1562H142.479V23.4163C142.479 26.7762 144.399 28.9662 147.819 28.9662C149.979 28.9662 151.179 28.1562 152.229 26.7463H152.319V28.5463H156.249Z" fill="#355030"/>
<path d="M158.888 28.5463H162.968V19.6063C162.968 17.5663 164.078 16.2463 165.728 16.2463C167.228 16.2463 168.098 17.1463 168.098 18.8863V28.5463H172.178V19.6063C172.178 17.5663 173.228 16.2463 174.938 16.2463C176.438 16.2463 177.308 17.1463 177.308 18.8863V28.5463H181.388V18.1963C181.388 14.8363 179.558 12.7363 176.318 12.7363C174.368 12.7363 172.748 13.7563 171.698 15.4363H171.638C170.888 13.8163 169.328 12.7363 167.378 12.7363C165.248 12.7363 163.748 13.8163 162.908 15.2263H162.818V13.1563H158.888V28.5463Z" fill="#355030"/>
<path d="M1.18408 28.5462H5.26408V7.09619H1.18408V28.5462Z" fill="#355030"/>
<path d="M15.2402 28.9963C20.0102 28.9963 23.2802 25.4563 23.2802 20.8663C23.2802 16.2763 20.0102 12.7363 15.2402 12.7363C10.4702 12.7363 7.2002 16.2763 7.2002 20.8663C7.2002 25.4563 10.4702 28.9963 15.2402 28.9963ZM15.2402 25.8763C12.7202 25.8763 11.3402 23.8663 11.3402 20.8663C11.3402 17.8663 12.7202 15.8263 15.2402 15.8263C17.7302 15.8263 19.1402 17.8663 19.1402 20.8663C19.1402 23.8663 17.7302 25.8763 15.2402 25.8763Z" fill="#355030"/>
<path d="M31.9568 33.7963C34.2368 33.7963 36.2168 33.2563 37.5068 32.0563C38.6468 31.0063 39.3368 29.5363 39.3368 27.3763V13.1563H35.4068V14.7763H35.3468C34.4168 13.4863 33.0068 12.7363 31.0868 12.7363C27.1868 12.7363 24.4268 15.6763 24.4268 20.2663C24.4268 24.9163 27.7868 27.6163 31.2068 27.6163C33.1568 27.6163 34.3268 26.8363 35.2268 25.8163H35.3168V27.4963C35.3168 29.5963 34.2068 30.7063 31.8968 30.7063C30.0068 30.7063 29.1368 29.9563 28.8068 28.9963H24.7568C25.1768 31.9963 27.7568 33.7963 31.9568 33.7963ZM31.8968 24.3463C29.7968 24.3463 28.4168 22.8163 28.4168 20.2063C28.4168 17.6263 29.7968 16.0063 31.8668 16.0063C34.3268 16.0063 35.5268 17.9263 35.5268 20.1763C35.5268 22.4563 34.4768 24.3463 31.8968 24.3463Z" fill="#355030"/>
<path d="M49.2539 28.9963C54.0239 28.9963 57.2939 25.4563 57.2939 20.8663C57.2939 16.2763 54.0239 12.7363 49.2539 12.7363C44.4839 12.7363 41.2139 16.2763 41.2139 20.8663C41.2139 25.4563 44.4839 28.9963 49.2539 28.9963ZM49.2539 25.8763C46.7339 25.8763 45.3539 23.8663 45.3539 20.8663C45.3539 17.8663 46.7339 15.8263 49.2539 15.8263C51.7439 15.8263 53.1539 17.8663 53.1539 20.8663C53.1539 23.8663 51.7439 25.8763 49.2539 25.8763Z" fill="#355030"/>
<path d="M181.204 9.79639C181.204 9.10603 181.763 8.54639 182.454 8.54639H184.954C185.644 8.54639 186.204 9.10603 186.204 9.79639C186.204 10.4867 185.644 11.0464 184.954 11.0464H182.454C181.763 11.0464 181.204 10.4867 181.204 9.79639Z" fill="#355030"/>
</g>
<defs>
<clipPath id="clip0_2005_504">
<rect width="186" height="41" fill="white" transform="translate(0.5)"/>
</clipPath>
</defs>
</svg>
