<svg width="133" height="35" viewBox="0 0 133 35" fill="none" xmlns="http://www.w3.org/2000/svg">
<path d="M45.33 25.2047C44.7352 25.237 44.1469 25.0679 43.66 24.7247C43.4566 24.5739 43.2929 24.3758 43.1831 24.1476C43.0733 23.9193 43.0208 23.6678 43.03 23.4147V14.1447C43.0252 14.1055 43.0293 14.0656 43.0422 14.0282C43.055 13.9908 43.0762 13.9569 43.1042 13.9289C43.1322 13.9009 43.1661 13.8797 43.2035 13.8669C43.2409 13.854 43.2808 13.8499 43.32 13.8547H45C45.19 13.8547 45.28 13.9547 45.28 14.1447V22.6947C45.28 23.0747 45.45 23.2647 45.8 23.2647C45.9484 23.2708 46.0968 23.254 46.24 23.2147C46.44 23.2147 46.55 23.2747 46.56 23.4547L46.71 24.7047C46.7172 24.7412 46.7165 24.7787 46.708 24.8149C46.6995 24.851 46.6833 24.885 46.6605 24.9143C46.6378 24.9437 46.609 24.9679 46.5762 24.9852C46.5433 25.0025 46.5071 25.0126 46.47 25.0147C46.102 25.1363 45.7175 25.2004 45.33 25.2047Z" fill="#394149"/>
<path d="M54.78 24.1347C53.9359 24.8322 52.875 25.2137 51.78 25.2137C50.685 25.2137 49.6242 24.8322 48.78 24.1347C48.0381 23.3857 47.6218 22.374 47.6218 21.3197C47.6218 20.2654 48.0381 19.2537 48.78 18.5047C49.6258 17.8108 50.686 17.4316 51.78 17.4316C52.874 17.4316 53.9342 17.8108 54.78 18.5047C55.5049 19.2606 55.9096 20.2674 55.9096 21.3147C55.9096 22.362 55.5049 23.3688 54.78 24.1247V24.1347ZM50.36 22.8147C50.7518 23.1696 51.2614 23.3661 51.79 23.3661C52.3186 23.3661 52.8283 23.1696 53.22 22.8147C53.5746 22.4071 53.7698 21.885 53.7698 21.3447C53.7698 20.8045 53.5746 20.2824 53.22 19.8747C52.8283 19.5199 52.3186 19.3233 51.79 19.3233C51.2614 19.3233 50.7518 19.5199 50.36 19.8747C50.0055 20.2824 49.8102 20.8045 49.8102 21.3447C49.8102 21.885 50.0055 22.4071 50.36 22.8147Z" fill="#394149"/>
<path d="M65.16 17.6846C65.35 17.6846 65.44 17.7846 65.44 17.9746V25.1446C65.4575 25.6286 65.3669 26.1103 65.1749 26.5548C64.9829 26.9994 64.6943 27.3956 64.33 27.7146C63.5214 28.4041 62.4816 28.7614 61.42 28.7146C60.4612 28.7483 59.5151 28.4865 58.71 27.9646C58.3662 27.7389 58.0725 27.4448 57.8472 27.1008C57.6218 26.7567 57.4696 26.37 57.4 25.9646C57.4 25.7646 57.4 25.6746 57.67 25.6746H59.35C59.4213 25.677 59.4905 25.7001 59.549 25.7409C59.6076 25.7817 59.6531 25.8385 59.68 25.9046C59.789 26.2083 60.0062 26.4612 60.29 26.6146C60.6359 26.7931 61.0209 26.8825 61.41 26.8746C61.6448 26.8875 61.8798 26.8534 62.1013 26.7744C62.3228 26.6955 62.5263 26.5731 62.7 26.4146C62.8587 26.2488 62.9821 26.0525 63.0629 25.8377C63.1437 25.6229 63.1801 25.3939 63.17 25.1646V24.5346C62.5685 24.977 61.8364 25.2058 61.09 25.1846C60.5676 25.2036 60.0468 25.1169 59.5587 24.9296C59.0707 24.7422 58.6256 24.4583 58.25 24.0946C57.5291 23.3488 57.1261 22.352 57.1261 21.3146C57.1261 20.2773 57.5291 19.2805 58.25 18.5346C58.6274 18.1742 59.0731 17.893 59.5608 17.7075C60.0486 17.522 60.5685 17.436 61.09 17.4546C61.858 17.4343 62.6098 17.6779 63.22 18.1446V17.9846C63.2154 17.9463 63.2194 17.9074 63.2317 17.8708C63.244 17.8343 63.2643 17.8009 63.2911 17.7731C63.3179 17.7453 63.3506 17.7239 63.3867 17.7103C63.4229 17.6967 63.4616 17.6914 63.5 17.6946L65.16 17.6846ZM61.28 23.4046C61.5376 23.4126 61.7939 23.3639 62.0306 23.2619C62.2673 23.16 62.4788 23.0073 62.65 22.8146C62.9825 22.3853 63.1629 21.8576 63.1629 21.3146C63.1629 20.7716 62.9825 20.244 62.65 19.8146C62.4794 19.6246 62.2692 19.4741 62.0343 19.3739C61.7993 19.2737 61.5453 19.2262 61.29 19.2346C61.0294 19.2264 60.7702 19.2749 60.5302 19.3768C60.2902 19.4787 60.0752 19.6315 59.9 19.8246C59.5317 20.2353 59.338 20.7734 59.36 21.3246C59.342 21.8704 59.5314 22.4028 59.89 22.8146C60.0656 23.0072 60.2807 23.1597 60.5206 23.2615C60.7605 23.3633 61.0195 23.4121 61.28 23.4046Z" fill="#394149"/>
<path d="M74.07 24.1348C73.2242 24.8287 72.164 25.2079 71.07 25.2079C69.976 25.2079 68.9158 24.8287 68.07 24.1348C67.3445 23.3772 66.9395 22.3688 66.9395 21.3198C66.9395 20.2709 67.3445 19.2624 68.07 18.5048C68.9166 17.8127 69.9765 17.4346 71.07 17.4346C72.1635 17.4346 73.2234 17.8127 74.07 18.5048C74.7949 19.2607 75.1996 20.2675 75.1996 21.3148C75.1996 22.3621 74.7949 23.3689 74.07 24.1248V24.1348ZM69.64 22.8148C69.8317 22.9972 70.0577 23.1397 70.3049 23.2341C70.5521 23.3285 70.8155 23.373 71.08 23.3648C71.3428 23.3716 71.6044 23.3266 71.8498 23.2322C72.0952 23.1378 72.3195 22.996 72.51 22.8148C72.8588 22.4044 73.0503 21.8834 73.0503 21.3448C73.0503 20.8062 72.8588 20.2852 72.51 19.8748C72.3195 19.6937 72.0952 19.5518 71.8498 19.4575C71.6044 19.3631 71.3428 19.318 71.08 19.3248C70.8155 19.3167 70.5521 19.3611 70.3049 19.4555C70.0577 19.5499 69.8317 19.6925 69.64 19.8748C69.2913 20.2852 69.0998 20.8062 69.0998 21.3448C69.0998 21.8834 69.2913 22.4044 69.64 22.8148Z" fill="#394149"/>
<path d="M78.81 15.9848C78.5457 16.2162 78.2063 16.3437 77.855 16.3437C77.5037 16.3437 77.1644 16.2162 76.9 15.9848C76.7802 15.8717 76.6847 15.7353 76.6194 15.584C76.5542 15.4327 76.5205 15.2696 76.5205 15.1048C76.5205 14.94 76.5542 14.777 76.6194 14.6256C76.6847 14.4743 76.7802 14.3379 76.9 14.2248C77.1671 13.9992 77.5054 13.8755 77.855 13.8755C78.2046 13.8755 78.5429 13.9992 78.81 14.2248C78.9299 14.3379 79.0254 14.4743 79.0906 14.6256C79.1559 14.777 79.1895 14.94 79.1895 15.1048C79.1895 15.2696 79.1559 15.4327 79.0906 15.584C79.0254 15.7353 78.9299 15.8717 78.81 15.9848ZM79.02 25.2048C78.4256 25.234 77.8383 25.0652 77.35 24.7248C77.1497 24.5718 76.9888 24.373 76.881 24.1451C76.7731 23.9172 76.7213 23.6668 76.73 23.4148V17.9748C76.7252 17.9356 76.7293 17.8957 76.7422 17.8583C76.755 17.8209 76.7762 17.787 76.8042 17.759C76.8322 17.731 76.8661 17.7098 76.9035 17.697C76.9409 17.6841 76.9808 17.68 77.02 17.6848H78.7C78.89 17.6848 78.98 17.7848 78.98 17.9748V22.6948C78.98 23.0748 79.15 23.2648 79.49 23.2648C79.6417 23.2703 79.7933 23.2534 79.94 23.2148C80.14 23.2148 80.25 23.2748 80.26 23.4548L80.41 24.7048C80.4172 24.7413 80.4165 24.7788 80.408 24.815C80.3995 24.8511 80.3833 24.8851 80.3605 24.9144C80.3378 24.9438 80.309 24.968 80.2762 24.9853C80.2433 25.0026 80.2071 25.0127 80.17 25.0148C79.7988 25.1371 79.4109 25.2012 79.02 25.2048Z" fill="#394149"/>
<path d="M86.59 17.4447C87.1147 17.424 87.6383 17.5089 88.1296 17.6944C88.6209 17.88 89.07 18.1623 89.45 18.5247C90.1572 19.2837 90.5504 20.2824 90.5504 21.3197C90.5504 22.357 90.1572 23.3558 89.45 24.1147C89.0718 24.4804 88.6233 24.7655 88.1317 24.9528C87.6401 25.1402 87.1157 25.2259 86.59 25.2047C85.8412 25.2214 85.1073 24.9932 84.5 24.5547V28.1647C84.5 28.3547 84.4 28.4447 84.21 28.4447H82.53C82.4917 28.4519 82.4522 28.4496 82.4149 28.4381C82.3777 28.4265 82.3438 28.4061 82.3162 28.3785C82.2887 28.3509 82.2682 28.3171 82.2567 28.2798C82.2451 28.2426 82.2429 28.2031 82.25 28.1647V19.9647C82.2618 19.8845 82.2546 19.8027 82.2292 19.7257C82.2037 19.6488 82.1605 19.5788 82.1032 19.5215C82.0459 19.4642 81.976 19.4211 81.899 19.3956C81.8221 19.3701 81.7402 19.363 81.66 19.3747H81.33C81.11 19.3747 81 19.2947 81 19.1347V17.9547C80.9948 17.8817 81.0148 17.8091 81.0567 17.7491C81.0985 17.689 81.1597 17.6451 81.23 17.6247C81.5759 17.499 81.942 17.438 82.31 17.4447C82.677 17.4122 83.0453 17.4901 83.3678 17.6682C83.6902 17.8464 83.9522 18.1168 84.12 18.4447C84.4421 18.1189 84.8273 17.8622 85.252 17.6902C85.6767 17.5183 86.1319 17.4347 86.59 17.4447ZM85.03 22.8147C85.2083 23.0011 85.4225 23.1494 85.6597 23.2507C85.8969 23.352 86.1521 23.4042 86.41 23.4042C86.6679 23.4042 86.9232 23.352 87.1603 23.2507C87.3975 23.1494 87.6117 23.0011 87.79 22.8147C88.1656 22.3958 88.3629 21.8469 88.34 21.2847C88.3661 20.7221 88.1684 20.1719 87.79 19.7547C87.6117 19.5684 87.3975 19.4201 87.1603 19.3188C86.9232 19.2174 86.6679 19.1652 86.41 19.1652C86.1521 19.1652 85.8969 19.2174 85.6597 19.3188C85.4225 19.4201 85.2083 19.5684 85.03 19.7547C84.6662 20.1793 84.4768 20.726 84.5 21.2847C84.4797 21.843 84.6688 22.3887 85.03 22.8147Z" fill="#394149"/>
<path d="M95.27 25.2046C94.3723 25.2415 93.4822 25.0268 92.7 24.5846C92.3862 24.3956 92.119 24.1383 91.9181 23.8319C91.7173 23.5255 91.5881 23.1778 91.54 22.8146C91.54 22.6146 91.61 22.5146 91.83 22.5146H93.3C93.3699 22.5174 93.4378 22.5393 93.496 22.5782C93.5542 22.617 93.6006 22.6711 93.63 22.7346C93.84 23.2746 94.39 23.5446 95.27 23.5446C95.577 23.5587 95.8826 23.4968 96.16 23.3646C96.2558 23.3214 96.3379 23.253 96.3978 23.1667C96.4577 23.0804 96.493 22.9794 96.5 22.8746C96.5 22.6146 96.34 22.4346 96.02 22.3146C95.6405 22.1883 95.2481 22.1044 94.85 22.0646C94.3785 22.0112 93.9109 21.9277 93.45 21.8146C93.0018 21.7132 92.5943 21.4798 92.28 21.1446C92.0949 20.9168 91.9587 20.6533 91.8797 20.3706C91.8008 20.0879 91.7809 19.7919 91.8212 19.5012C91.8616 19.2104 91.9613 18.931 92.1142 18.6805C92.2671 18.4299 92.4699 18.2135 92.71 18.0446C93.4308 17.5855 94.2765 17.3618 95.13 17.4046C95.9564 17.3767 96.774 17.5811 97.49 17.9946C97.7786 18.1581 98.027 18.3838 98.2173 18.6554C98.4076 18.927 98.5349 19.2376 98.59 19.5646C98.59 19.7646 98.5 19.8646 98.32 19.8646H96.84C96.7777 19.8683 96.7157 19.8531 96.6622 19.821C96.6087 19.7889 96.5661 19.7413 96.54 19.6846C96.4411 19.4478 96.2549 19.258 96.02 19.1546C95.755 19.016 95.459 18.9471 95.16 18.9546C94.8669 18.9387 94.5745 18.9972 94.31 19.1246C94.2168 19.1606 94.1366 19.2236 94.0795 19.3056C94.0225 19.3876 93.9913 19.4848 93.99 19.5846C93.9964 19.7214 94.0465 19.8525 94.1329 19.9587C94.2193 20.0649 94.3374 20.1405 94.47 20.1746C94.854 20.3194 95.2533 20.42 95.66 20.4746C96.1277 20.5362 96.5917 20.623 97.05 20.7346C97.4982 20.8361 97.9057 21.0694 98.22 21.4046C98.3882 21.5893 98.518 21.8054 98.6021 22.0406C98.6862 22.2757 98.7229 22.5252 98.71 22.7746C98.7186 23.1203 98.6375 23.4623 98.4745 23.7673C98.3115 24.0722 98.0722 24.3297 97.78 24.5146C97.0329 24.9943 96.1574 25.2349 95.27 25.2046Z" fill="#394149"/>
<path d="M109.28 24.7048C109.286 24.7403 109.284 24.7766 109.276 24.8115C109.267 24.8465 109.252 24.8793 109.23 24.9082C109.209 24.9371 109.182 24.9614 109.151 24.9797C109.12 24.998 109.086 25.0099 109.05 25.0148C108.685 25.134 108.304 25.1981 107.92 25.2048C107.54 25.2442 107.156 25.1848 106.806 25.0324C106.455 24.88 106.15 24.6397 105.92 24.3348C105.214 24.9421 104.3 25.2537 103.37 25.2048C102.938 25.2247 102.507 25.154 102.104 24.9973C101.701 24.8406 101.335 24.6013 101.03 24.2948C100.727 23.9737 100.492 23.5947 100.339 23.1806C100.186 22.7665 100.119 22.3258 100.14 21.8848V17.9748C100.14 17.7848 100.23 17.6848 100.42 17.6848H102.1C102.29 17.6848 102.38 17.7848 102.38 17.9748V21.5848C102.362 22.0346 102.515 22.4744 102.81 22.8148C102.957 22.9708 103.136 23.0934 103.334 23.1745C103.532 23.2556 103.746 23.2932 103.96 23.2848C104.179 23.2944 104.398 23.2605 104.604 23.1849C104.81 23.1094 104.999 22.9938 105.16 22.8448C105.312 22.6878 105.431 22.5012 105.508 22.2965C105.586 22.0918 105.62 21.8734 105.61 21.6548V17.9748C105.61 17.7848 105.7 17.6848 105.89 17.6848H107.59C107.78 17.6848 107.87 17.7848 107.87 17.9748V22.6848C107.87 23.0748 108.04 23.2648 108.37 23.2648C108.525 23.2708 108.68 23.254 108.83 23.2148C108.868 23.2042 108.908 23.2023 108.946 23.2093C108.985 23.2162 109.021 23.2318 109.053 23.2549C109.085 23.278 109.111 23.308 109.13 23.3426C109.148 23.3772 109.158 23.4156 109.16 23.4548L109.28 24.7048Z" fill="#394149"/>
<path d="M125.17 24.7048C125.179 24.7406 125.18 24.778 125.173 24.8142C125.165 24.8503 125.15 24.8845 125.128 24.9141C125.106 24.9437 125.078 24.9681 125.045 24.9855C125.013 25.003 124.977 25.013 124.94 25.0148C124.568 25.1357 124.181 25.1998 123.79 25.2048C123.195 25.2355 122.608 25.0666 122.12 24.7248C121.909 24.5784 121.738 24.3823 121.621 24.1538C121.504 23.9253 121.445 23.6714 121.45 23.4148V21.0648C121.471 20.6164 121.321 20.1767 121.03 19.8348C120.89 19.6785 120.716 19.5553 120.523 19.474C120.329 19.3928 120.12 19.3555 119.91 19.3648C119.721 19.3577 119.533 19.3936 119.359 19.4698C119.186 19.546 119.033 19.6606 118.91 19.8048C118.646 20.1399 118.511 20.5587 118.53 20.9848V24.6748C118.53 24.8648 118.44 24.9648 118.25 24.9648H116.56C116.521 24.9697 116.481 24.9655 116.444 24.9527C116.406 24.9398 116.372 24.9186 116.344 24.8906C116.316 24.8627 116.295 24.8287 116.282 24.7913C116.269 24.7539 116.265 24.7141 116.27 24.6748V21.0648C116.292 20.6213 116.153 20.1847 115.88 19.8348C115.758 19.6878 115.605 19.5695 115.432 19.4883C115.26 19.4071 115.071 19.3649 114.88 19.3648C114.676 19.3566 114.473 19.3915 114.283 19.4674C114.093 19.5432 113.922 19.6582 113.78 19.8048C113.494 20.1292 113.347 20.553 113.37 20.9848V24.6748C113.375 24.7141 113.371 24.7539 113.358 24.7913C113.345 24.8287 113.324 24.8627 113.296 24.8906C113.268 24.9186 113.234 24.9398 113.197 24.9527C113.159 24.9655 113.119 24.9697 113.08 24.9648H111.45C111.26 24.9648 111.17 24.8648 111.17 24.6748V19.9648C111.182 19.8846 111.175 19.8028 111.149 19.7258C111.124 19.6489 111.081 19.5789 111.023 19.5216C110.966 19.4643 110.896 19.4212 110.819 19.3957C110.742 19.3702 110.66 19.3631 110.58 19.3748H110.25C110.03 19.3748 109.92 19.2948 109.92 19.1348V17.9548C109.915 17.8818 109.935 17.8092 109.977 17.7492C110.019 17.6891 110.08 17.6452 110.15 17.6248C110.496 17.4991 110.862 17.4381 111.23 17.4448C111.583 17.4147 111.938 17.4851 112.253 17.6479C112.568 17.8107 112.83 18.0592 113.01 18.3648C113.347 18.0451 113.747 17.7983 114.184 17.64C114.621 17.4817 115.086 17.4153 115.55 17.4448C116.001 17.4228 116.45 17.5073 116.862 17.6915C117.274 17.8757 117.636 18.1543 117.92 18.5048C118.251 18.1451 118.658 17.8635 119.111 17.6801C119.564 17.4968 120.052 17.4165 120.54 17.4448C120.976 17.4244 121.412 17.4947 121.82 17.6514C122.228 17.808 122.599 18.0475 122.91 18.3548C123.214 18.6753 123.449 19.0542 123.602 19.4685C123.755 19.8827 123.823 20.3238 123.8 20.7648V22.6948C123.8 23.0748 123.97 23.2648 124.29 23.2648C124.445 23.272 124.6 23.2552 124.75 23.2148C124.957 23.2148 125.067 23.2948 125.08 23.4548L125.17 24.7048Z" fill="#394149"/>
<path d="M7.91 16.3847C8.64777 13.4194 10.3564 10.7861 12.7639 8.90424C15.1714 7.02234 18.1393 6 21.195 6C24.2507 6 27.2186 7.02234 29.6261 8.90424C32.0336 10.7861 33.7422 13.4194 34.48 16.3847H33.28C31.2557 16.3549 29.2729 16.9599 27.61 18.1147C27.514 18.1842 27.4138 18.2477 27.31 18.3047H27.17C27.0662 18.2477 26.966 18.1842 26.87 18.1147C25.1924 16.9866 23.2166 16.3841 21.195 16.3841C19.1734 16.3841 17.1976 16.9866 15.52 18.1147C15.424 18.1842 15.3238 18.2477 15.22 18.3047H15.08C14.9762 18.2477 14.876 18.1842 14.78 18.1147C13.1171 16.9599 11.1343 16.3549 9.11 16.3847H7.91ZM31.12 22.6547C31.736 22.175 32.4995 21.924 33.28 21.9447H34.89V18.7347H33.28C31.9052 18.7181 30.5619 19.146 29.45 19.9547C28.8243 20.416 28.0674 20.6649 27.29 20.6649C26.5126 20.6649 25.7557 20.416 25.13 19.9547C23.9899 19.1611 22.6341 18.7356 21.245 18.7356C19.8559 18.7356 18.5001 19.1611 17.36 19.9547C16.7343 20.416 15.9774 20.6649 15.2 20.6649C14.4226 20.6649 13.6657 20.416 13.04 19.9547C11.9144 19.1356 10.5518 18.7072 9.16 18.7347H7.5V21.9447H9.11C9.89051 21.924 10.654 22.175 11.27 22.6547C12.408 23.4489 13.7623 23.8747 15.15 23.8747C16.5377 23.8747 17.892 23.4489 19.03 22.6547C19.6468 22.1765 20.4097 21.9257 21.19 21.9447C21.9708 21.9223 22.7348 22.1735 23.35 22.6547C24.4901 23.4484 25.8459 23.8738 27.235 23.8738C28.6241 23.8738 29.9799 23.4484 31.12 22.6547ZM31.12 28.3947C31.736 27.915 32.4995 27.664 33.28 27.6847H34.89V24.4747H33.28C31.9052 24.4581 30.5619 24.886 29.45 25.6947C28.8243 26.156 28.0674 26.4049 27.29 26.4049C26.5126 26.4049 25.7557 26.156 25.13 25.6947C23.9899 24.9011 22.6341 24.4757 21.245 24.4757C19.8559 24.4757 18.5001 24.9011 17.36 25.6947C16.7343 26.156 15.9774 26.4049 15.2 26.4049C14.4226 26.4049 13.6657 26.156 13.04 25.6947C11.9144 24.8757 10.5518 24.4472 9.16 24.4747H7.5V27.6847H9.11C9.89051 27.664 10.654 27.915 11.27 28.3947C12.408 29.1889 13.7623 29.6147 15.15 29.6147C16.5377 29.6147 17.892 29.1889 19.03 28.3947C19.6468 27.9165 20.4097 27.6657 21.19 27.6847C21.9708 27.6623 22.7348 27.9135 23.35 28.3947C24.4901 29.1884 25.8459 29.6138 27.235 29.6138C28.6241 29.6138 29.9799 29.1884 31.12 28.3947Z" fill="#394149"/>
</svg>
