<svg width="85" height="40" viewBox="0 0 85 40" fill="none" xmlns="http://www.w3.org/2000/svg">
<g clip-path="url(#clip0_2005_501)">
<path d="M76.5619 38.9452V39.04C76.5385 39.0936 76.5103 39.1452 76.4776 39.1939L76.3572 39.336L76.2368 39.4426C76.1112 39.5476 75.9688 39.6316 75.8154 39.6912H75.7552C75.6057 39.7499 75.4467 39.782 75.2857 39.786H70.4702C70.3417 39.7901 70.2139 39.7668 70.0954 39.7178C69.977 39.6687 69.8707 39.595 69.784 39.5018L64.523 34.1497L61.0678 39.3123L60.9956 39.407L60.8752 39.5491H60.815H60.7548H60.6705C60.574 39.6301 60.4641 39.6942 60.3455 39.7386L60.2251 39.7978C60.0741 39.8519 59.916 39.8838 59.7556 39.8925H54.94C54.8116 39.8966 54.6837 39.8734 54.5653 39.8243C54.4468 39.7753 54.3406 39.7016 54.2538 39.6083L52.46 37.5836L46.1516 39.7978C46.0041 39.8631 45.8438 39.8954 45.6821 39.8925C45.4635 39.8984 45.2499 39.8269 45.0802 39.6912L44.9838 39.5965L41.9741 36.21C41.8537 36.6126 41.7574 37.0152 41.625 37.3941L41.5528 37.5599C41.532 37.6147 41.5036 37.6665 41.4685 37.7138L41.3963 37.8085L41.2638 37.9506L41.0953 38.1046C41.0022 38.1748 40.9012 38.2344 40.7943 38.2822L40.4452 38.7084C40.2796 38.7695 40.1044 38.8015 39.9275 38.8032H35.9788C35.8511 38.8096 35.7236 38.7885 35.6051 38.7415C35.4866 38.6944 35.3799 38.6226 35.2926 38.5308L33.9924 37.0626L33.4265 38.9097C33.4131 38.9726 33.3886 39.0327 33.3543 39.0874L33.282 39.2413L33.2098 39.336L33.0895 39.4781C33.0393 39.5354 32.9827 39.587 32.9209 39.632C32.8208 39.6982 32.7162 39.7575 32.6079 39.8096L32.4514 39.8925C32.2902 39.956 32.1192 39.9921 31.9457 39.9991H24.7946C24.6642 40.0049 24.534 39.9825 24.4134 39.9334C24.2927 39.8843 24.1845 39.8097 24.0964 39.7149L23.049 38.5308H19.2568L19.1725 38.815C19.1579 38.8759 19.1377 38.9353 19.1123 38.9926C19.0796 39.0414 19.0514 39.0929 19.028 39.1465L18.9558 39.2413L18.8354 39.3834C18.7852 39.4407 18.7287 39.4923 18.6669 39.5373C18.5668 39.6034 18.4622 39.6628 18.3538 39.7149L18.1973 39.7978C18.0362 39.8613 17.8652 39.8973 17.6917 39.9044H13.2253C13.0968 39.9085 12.969 39.8852 12.8505 39.8362C12.7321 39.7871 12.6258 39.7134 12.5391 39.6202L11.1546 38.069H7.02524C6.8976 38.0754 6.77011 38.0544 6.6516 38.0074C6.53308 37.9603 6.42642 37.8884 6.33905 37.7967L0.716875 31.8052C0.761898 31.8499 0.814969 31.8861 0.873386 31.9118C0.76926 31.851 0.682335 31.7655 0.62058 31.6631C0.541346 31.511 0.5 31.3426 0.5 31.1717C0.5 31.0008 0.541346 30.8324 0.62058 30.6803C3.80029 24.2563 6.40647 17.5726 8.40974 10.7048V10.6219L8.01244 10.1719C8.01244 10.1719 8.07265 10.1719 8.10877 10.2548C7.97556 10.1345 7.88159 9.97806 7.83873 9.80525C7.79588 9.63243 7.80605 9.45099 7.86798 9.28387L9.18021 4.95012C9.28974 4.62307 9.49609 4.33564 9.77279 4.12468C10.0495 3.91372 10.3839 3.78884 10.7332 3.76603H15.5488L16.3313 1.18471C16.4423 0.858504 16.649 0.571948 16.9254 0.361205C17.2018 0.150462 17.5355 0.0249814 17.8843 0.00062735H22.3869C22.5207 -0.00449731 22.6539 0.0218341 22.7753 0.0774333C22.8968 0.133032 23.0029 0.216303 23.0851 0.320336L24.6261 2.06095L24.7465 1.74124C24.8553 1.41155 25.0631 1.12199 25.3424 0.910645C25.6218 0.699298 25.9597 0.576061 26.3116 0.55715H42.2149C42.3483 0.554799 42.4806 0.582374 42.6016 0.637768C42.7225 0.693161 42.8291 0.774924 42.9132 0.876858L47.7287 6.3355L47.6445 1.78861C47.6512 1.58831 47.6995 1.39147 47.7864 1.21023C47.8734 1.02899 47.9971 0.867174 48.1501 0.734756C48.441 0.437424 48.8383 0.263297 49.2577 0.249294H54.0732C54.2275 0.244624 54.3803 0.280577 54.5158 0.353436C54.6512 0.426295 54.7644 0.533405 54.8437 0.663713C54.8228 0.616153 54.7944 0.57218 54.7594 0.533463L58.3711 4.5712L58.9851 2.54643C59.0917 2.21767 59.2973 1.92848 59.5746 1.71706C59.8519 1.50565 60.1878 1.38196 60.5381 1.36234H78.1149C78.2493 1.35674 78.3833 1.38158 78.5065 1.43495C78.6296 1.48833 78.7386 1.56881 78.8252 1.67019L84.3149 7.86296L84.3871 7.94586C84.446 8.03496 84.4831 8.13629 84.4955 8.24188C84.4955 8.24188 84.4955 8.24188 84.4955 8.30109C84.5015 8.38782 84.5015 8.47484 84.4955 8.56157C84.4997 8.6286 84.4997 8.69585 84.4955 8.76288L78.9696 26.8676L78.8974 27.0452L78.8131 27.1991C78.8131 27.1991 78.8131 27.2583 78.7409 27.2938L78.6205 27.4359L78.4399 27.5899C78.3436 27.6609 78.2353 27.7083 78.1389 27.7675C78.0426 27.8267 78.0306 27.8385 77.9824 27.8504C77.8192 27.9207 77.643 27.957 77.4648 27.9569H75.057L76.0081 29.0226V29.1055C76.0692 29.2151 76.1061 29.3361 76.1164 29.4607L76.6461 38.3887V38.7084C76.6461 38.7084 76.6461 38.7084 76.6461 38.7913C76.6461 38.8742 76.5619 38.9097 76.5619 38.9452Z" fill="black"/>
<path d="M1.80029 30.9054C5.01511 24.4077 7.65342 17.6491 9.68579 10.7049H13.4298C11.4513 17.6323 8.89854 24.3884 5.79721 30.9054H1.80029ZM25.9984 1.71764L24.6862 6.00405H40.5655L41.8777 1.71764H25.9984ZM13.8151 31.3199H18.2935C21.1024 26.6668 23.3297 21.6971 24.9269 16.5188H20.9421C19.2875 21.7438 16.8792 26.7084 13.791 31.2607L13.8151 31.3199ZM21.6283 10.2905L20.304 14.6479H27.9005L23.699 28.4425H20.9541L19.6298 32.7644H26.7809L32.2948 14.6479H39.6746L41.0109 10.2905H21.6283ZM18.2574 13.7362L19.6058 9.31947H22.3868L23.711 4.98573H20.9541L22.158 1.23218H17.5712L16.3673 4.98573H10.4081L9.08384 9.31947H15.1032L8.00031 32.7881H12.4667L16.6562 19.029L18.2333 20.5565L19.8345 15.2992L18.2574 13.7362ZM32.9448 16.6609C33.0601 21.6754 32.3611 26.6759 30.8742 31.4738H34.835C36.3304 26.6695 37.1408 21.6843 37.2427 16.6609H32.9448ZM53.8082 1.39795H48.9325L49.0649 8.96426H53.9527L53.8082 1.39795ZM43.6113 11.3325L42.2027 15.9741H45.5616L40.4451 32.7881L49.077 29.7569L50.6541 24.5587L47.2109 25.7428L51.6051 11.3206L43.6113 11.3325ZM54.5547 32.7644L60.5139 23.8483H55.6984L49.6789 32.7644H54.5547ZM60.2611 2.52283L54.7112 20.7104H72.2879L77.8258 2.52283H60.2611ZM69.0735 16.1754H60.7065L63.4755 7.04603H71.9027L69.1217 16.1754M64.5228 23.8127L65.0526 32.7289H69.8681L69.3264 23.8127H64.5228Z" fill="white"/>
</g>
<defs>
<clipPath id="clip0_2005_501">
<rect width="84" height="40" fill="white" transform="translate(0.5)"/>
</clipPath>
</defs>
</svg>
